<?xml version="1.0" standalone="no"?>
<!DOCTYPE svg PUBLIC "-//W3C//DTD SVG 1.1//EN" "http://www.w3.org/Graphics/SVG/1.1/DTD/svg11.dtd" >
<svg xmlns="http://www.w3.org/2000/svg" width="100%" height="100%">

<defs>
<font id="AQF_BSML" horiz-adv-x="903" >
  <font-face font-family="AQF_BSML" units-per-em="2048" panose-1="2 0 4 0 0 0 0 0 0 0" ascent="2541" descent="-1378" alphabetic="0" />
<missing-glyph horiz-adv-x="2048" 
d="M68 0v1365h544v-1365h-544zM136 68h408v1229h-408v-1229z" />
    <glyph glyph-name="uniFB50" unicode="&#xfb50;" horiz-adv-x="81" arabic-form="isolated" 
 />
    <glyph glyph-name="uniFB51" unicode="&#xfb51;" horiz-adv-x="6220" arabic-form="final" 
d="M5264 1314q8.14502 7.85486 21 11q203 -26 221 -65q0 -44 -102 -108l-157 -48q-32 11 -32 21v6q0 24 129 59l44 27q0 23 -108 32h-27q-18 0 -108 -54v22q54 97 119 97zM5495 575q8.86572 -7.13409 11 -21h6q-17 -44 -17 -81q50 -32 87 -32h32q34 15 86 145l33 27h10
l6 -27l-6 -37q64 -44 124 -44h54l27 6v11q-12 154 -172 334q-55 0 -97 102q6 146 37 146q286 -291 286 -566q0 -173 -108 -173h-11q-26 0 -183 65h-11q-10 0 -91 -108l-43 -11q-69 0 -140 54q-166 -81 -243 -81q-103 0 -151 119h-11l-355 -92q-371 -80 -782 -134h-22
q-267 -49 -964 -92q-273 -27 -847 -27h-27l-5 -5l-16 5q-565 0 -1046 108q0 13 -140 32q-28 -75 -48 -75q-124 16 -259 48q-86 -155 -270 -221l-124 -27l-5 6v16q175 89 340 237l10 22l-10 37q0 180 134 237l49 11q38 0 167 -118q273 -114 437 -119q0 -29 770 -65h103l5 6
l5 -6l189 6h232l372 27l21 -6q782 60 1116 114q284 32 480 75q410 75 566 151q27 -7 27 -16v-16q-22 -30 -22 -54q0 -31 97 -49h33q148 0 226 97q9 36 43 59h5zM510 354v-21q83 -49 129 -49h43q-56 130 -102 130q-34 0 -70 -60zM5830 247q10 0 80 -70v-6q0 -48 -75 -102
q-81 51 -81 81q34 85 76 97zM6099 63h5l17 -21q0 -53 -157 -86q-203 -81 -339 -119h-6l-10 11q0 65 86 81zM979 26l5 -16q0 -47 -129 -97l-265 -124h-16v5q0 75 54 75l329 151z" />
    <glyph glyph-name="uniFB52" unicode="&#xfb52;" horiz-adv-x="1666" arabic-form="isolated" 
d="M1507 1767q59 -18 59 -70v-11q0 -102 -129 -156q-21 -11 -59.5 -11t-140.5 48h-16q-11 -2 -54 -70l-5 6h-6q0 62 87 140h16q43 -33 65 -33q12 0 64 76q73 81 119 81zM1383 1605l16 -11h27q102 21 102 70q-17 33 -43 33q-61 0 -102 -92zM962 1643q8 0 17 -22
q0 -44 -168 -97q-144 -69 -436 -172l-5 16q0 73 199 118q79 42 242 97q119 60 151 60zM1345 1476h16l6 -38v-59l107 -545q38 -206 38 -253q-11 -192 -38 -259h-21q0 340 -119 792q-32 174 -32 238q24 124 43 124zM914 1384h5q22 0 22 -65v-48q0 -97 -135 -124l-43 5
q-50 -48 -102 -48h-6q-70 5 -70 70q11 81 32 81h11q0 -70 49 -70t75 37v38q0 64 33 86q16 -5 16 -32v-65l21 -21h22q48 8 48 32l-5 81q0 28 27 43zM1049 1082q19 0 48 -199q124 -293 124 -329q-11 -253 -114 -253t-225 118h-11q-98 -131 -135 -140l-81 -27q-102 0 -145 102
l-17 108h-21q-76 -102 -216 -102q-107 0 -107 32q0 121 183 275q129 72 140 97q21 59 32 59q20 -39 49 -323q28 -92 70 -92q0 -7 48 -10q173 43 173 145v16q-65 328 -65 410q21 65 32 65q22 0 54 -243q27 -75 44 -194q37 -89 102 -119q83 -37 118 -37q22 8 22 16v21l-86 227
q-33 90 -65 232q0 81 49 145zM262 516v-16l27 -5h54q140 22 140 43q-4 91 -22 91h-5q-134 -49 -194 -113zM483 187q27 -8 27 -32q-26 -59 -76 -59q-173 -104 -318 -157h-11l-5 22q0 60 178 119z" />
    <glyph glyph-name="uniFB53" unicode="&#xfb53;" horiz-adv-x="3022" arabic-form="final" 
d="M2852 1750q56 0 70 -80q0 -100 -156 -157l-60 -5q-21 0 -86 48h-11l-37 -48l-6 5h-5q30 104 59 119h11q40 -32 59 -32h6l107 134zM2750 1605v-16h32q41 0 91 48v16q-8 22 -37 22h-27q-30 -23 -59 -70zM1343 1632h16l5 -16q0 -52 -215 -146l-254 -135l-10 11q0 59 199 151
q201 115 259 135zM2189 1578q22 -5 22 -32q0 -41 -184 -108l-329 -156l-16 21q0 60 189 124zM2367 1524l48 -108q17 -11 33 -59l-33 -75l124 -663q0 -232 -59 -232q0 -28 -140 -59q-62 -115 -103 -221q-139 -221 -280 -221h-70q-104 0 -377 86l-11 32v6l22 5
q119 -43 194 -43l27 5l80 -5q132 0 308 135q129 167 129 231q-86 50 -86 97q7 87 21 87h6q61 -49 172 -49q103 20 103 65v11l-151 781q-11 0 -22 65q0 55 65 129zM2750 1476h10q18 0 27 -189q97 -476 124 -717q0 -139 -38 -253h-10l-16 16l5 81v16q0 152 -108 690
q-27 120 -32 253q24 103 38 103zM1418 1389q178 -12 178 -37v-6q0 -84 -221 -167h-27v11l135 92l5 21l-5 6h-81q-70 0 -119 -60l-16 6v10q45 124 151 124zM2157 1292q14 0 27 -102q0 -77 -119 -113l-32 5h-6l-91 -32h-27q-18 0 -38 75q0 26 27 81h5q11 0 11 -59l38 -27
q55 0 64 97l17 38h21l6 -38v-49l16 -16h32l22 22v5l-6 59q17 52 33 54zM841 1228h11q91 -95 124 -237q16 -45 22 -108l-6 -33l6 -5v-5l-22 -70h-11q-16 158 -59 258l-91 151q13 49 26 49zM1494 1039h10q60 0 205 -102q283 -146 442 -146v-11h6q-28 -66 -92 -113
q-137 65 -420 65q-108 -8 -108 -27q16 -73 16 -156q-24 -97 -86 -97h-6q-118 0 -231 86h-11q-98 -119 -248 -119q-13 -11 -54 -162q-64 -131 -318 -307q-185 -113 -539 -215q-378 -81 -631 -81l-124 5l-21 -5l-54 5h-22l-5 -5l-5 5h-38l-86 11h-17l-5 -5l-410 80l-231 81
q-252 91 -453 291l-108 124v22h22q239 -178 458 -275q492 -178 727 -178q0 -7 200 -21l5 5l43 -5q754 0 1229 258q151 65 329 243q32 53 32 86v11q0 54 -91 172v16q0 56 37 108h6l97 -113l102 -11q140 24 140 60q135 167 194 167l259 37v6q0 39 -194 70q-57 0 -172 -49v11
h-6q72 178 227 178zM664 974h10q76 -60 76 -97q0 -20 -49 -91h-21q-13 0 -81 75v11q0 46 65 102zM1294 651q54 -59 178 -59l5 5v16q-45 81 -80 81h-27q-46 0 -76 -43zM1224 96l11 -16q0 -56 -140 -103q-338 -142 -378 -167h-16l-5 22q0 66 264 151q237 113 264 113z" />
    <glyph glyph-name="uniFB54" unicode="&#xfb54;" horiz-adv-x="2293" arabic-form="initial" 
d="M6466 1788q70 0 86 -102q0 -66 -135 -146l-70 -16l-102 32q-24 0 -70 -64h-17v11h-5l75 140h17l64 -22l103 140zM6369 1616v-11h16q55 0 113 65v5q-14 32 -59 32q-30 0 -70 -91zM5770 1530q18 -6 22 -22q0 -54 -227 -124q-328 -140 -415 -167l-10 11q0 76 134 102
q4 11 496 200zM5937 1508h6q11 -1 54 -113q21 -22 21 -56.5t-21 -67.5v-27q97 -441 107 -545q-9 -237 -64 -237q-142 -33 -146 -48q-129 -383 -339 -383h-38q-334 43 -334 76q-25 10 -27 21v5l21 22q119 -43 194 -43q244 0 405 199l59 124v6q-65 57 -65 108q11 97 27 97h6
q0 -52 113 -71q129 10 129 54l-140 685q-9 0 -22 75q0 54 54 119zM6325 1449h11l6 -22l-6 -27q0 -42 103 -598q21 -132 21 -225t-32 -206h-6q-20 0 -37 328q-97 504 -103 604q0 75 43 146zM5754 1282q22 -31 22 -103q-34 -91 -130 -91l-10 10h-17q-48 -37 -86 -48
q-51 0 -70 75q23 82 43 92h11l-5 -70l21 -16h22q48 0 48 86l16 32h6q10 -3 32 -81l5 -5h11q54 7 54 22v26q0 62 27 71zM4876 947q218 -70 409 -118q139 -27 216 -27h11v5l27 -5h64l33 5l16 -16h5q-55 -122 -75 -124l-43 11h-114q-148 0 -420 -119q-96 -46 -248 -91
q-45 0 -199 86h-17q-260 -204 -857 -329q-376 -75 -997 -124h-48l-6 -5l-5 5h-5l-114 -16l-32 5l-135 -10l-16 5l-86 -5h-54l-194 10l-22 -5l-275 27v-5q-529 59 -846 177q-18 0 -38 -59l-21 -11l-5 6h-11l-49 -6q-7 9 -199 33q0 8 -54 21q-104 -156 -167 -156
q-127 -70 -189 -70l-16 11q0 25 210 129q135 94 135 140l-16 54q52 210 161 210q271 -172 329 -172q74 -55 507 -124q169 -40 744 -70l27 5l70 -5h97l32 5l16 -5q555 29 555 43l17 -6q767 87 921 151q87 0 491 167q68 34 172 114h22l11 -11v-49q0 -21 107 -32
q281 42 448 129v6q0 21 -254 64h-59q-101 0 -172 -53h-22q0 99 151 188zM493 441v-22q24 -47 189 -59l16 5q0 46 -129 130h-5q-71 -28 -71 -54zM5495 500q18 -5 22 -22q0 -50 -129 -86q-167 -75 -340 -135h-11v11h-5q0 72 135 97zM4687 365h5q46 0 97 -86v-5q0 -23 -64 -92
q-91 59 -108 59l-76 -86q-113 47 -113 76q0 47 76 102q79 -49 97 -49h10zM984 144l16 -5v-11q0 -59 -162 -97q0 -11 -301 -113h-6v21q0 57 232 119z" />
    <glyph glyph-name="uniFB55" unicode="&#xfb55;" horiz-adv-x="7877" arabic-form="medial" 
d="M4011 189q12.0908 -32.8179 17 -77l-89 -44q-76 -39 -135 -78t-94 -85q-66.8997 -97.6373 -76 -185q13 -23 33 -29q21 -1 41 -4q40 -16 71 -16t69.5 7.5t63 15t61 30.5q45.9873 28.9783 84.5 95q17.0649 -132.253 98 -178q40 -21 93 -21q110.696 0 192 85
q25 30 37.5 56.5t26.5 71.5q61.2646 -74.5831 144 -104q63 -26 99.5 -26q49.5 0 69.5 4q71 104.632 71 298q0 39 -66 171t-94 201.5l-55 140.5l-63 -196q19 -37 41 -88l46 -106.5q24 -55.5 50 -106.5l51 -103q-6 -3 -39.5 -3q-151.227 0 -203.5 138l-38 136q-43 145 -68 272
l-60 -200q37.0503 -102.917 46.5254 -164.959l13.4746 -88.5413q4 -26.5 4 -48.5q0 -47.5 -25.5 -77.75q-63.4341 -75.2502 -150.5 -75.25q-90.4883 0 -117 95q-28 71.2727 -28 143.136t-13.5 140.864l-27.5 139zM1597.5 605.5q-49.5 108.5 -92.5 131.5l-51 -113l31 -50
q35 -57 55 -96q18 -45 33 -97l27 -94q17 16 32 62.5t15 97t-49.5 159zM1126 506l-81 -133l134 -93l87 130zM4034 -4q6.82104 -11.9368 15 -91q-47.25 -63 -190 -63q-30.5 0 -41 3q18 33 80.5 80t135.5 71zM1959 -34q-16 0 -74 17t-68 34q0 9 20 23.5t45 15.5
q41.3567 1.65427 77 -90zM3397 -217q44 43 70.5 115t26.5 106.833t-19 117.167l-153 820l-77 -263l110 -567q42 -252 42 -329zM2677 -157q0 -81.4444 76 -130q-32 -80 -96 -163.5t-136.5 -121.5t-119.5 -50.5t-83.5 -12.5h-45.5q-56.8572 0 -134 45q-49 31 -74.5 70
t-59.5 104q0 -80.5 14.5 -114.25t26 -49.75t49.5 -58t110.5 -73.5t157.5 -39.5q94.6001 0 144.8 14q108.395 30.2297 197.2 126q61 61 103.5 171t48.5 160q127.979 12.1884 174.489 65.0942q46.5107 52.9058 62.0107 122.906t15.5 149l-7 67l-112 582l33 9l22.5 50t14.5 62
q-2 2 -48 30.5t-62.5 55.5q-26.5 43.3636 -26.5 142q-48 -5 -78 -53.5t-30 -100.5q0 -120.19 37 -129l147 -729l6 -41q3 -20 3 -38.5t-13.5 -34t-61.5 -30.5t-83 -15t-71.5 17.5t-47.5 55.5q-1 7 -8 7t-22.5 -34.5t-18 -51l-3.5 -23t-1 -12.5zM5082 -217q42 43 67.5 115
t25.5 109t-14 115l-158 820l-74 -263l111 -567q42 -240.947 42 -329zM1692 -625l-339 -156q-102 -44 -144 -58l-93 -117q107 14 241 75.5t272 152.5q57.78 72.9853 63 103zM2740 1402l-341 -158q-101 -45 -142 -58l-95 -114q211.908 25.9886 513 226q59.5327 68.4626 65 104
zM1743 1180q-338.807 -166.715 -407 -190l-94 -112q122 33 220.5 75.5t219.5 122.5l29 36q29 41 32 68zM4535 1205q-135.812 -67.16 -289.406 -135.08q-153.594 -67.9199 -191.594 -81.9199l-94 -115q110 17 241 76t269 152l30 38q31 41 35 66zM4011 -465l-158 -75.5
l-197 -90.5t-125 -50l-94 -111q220.104 26.494 514 226q60 66 60 101zM3330 1232l-68 18h-3.5q-48.7153 0 -95.1077 -66.5t-46.3923 -102.5l54 40q45 32 88 32q5 0 32.5 -19t65.5 -22q80 0 139.5 28t86.5 59q28 68 28 97q0 52.4445 -27.5 70.2222
q-27.5 17.7778 -64.5 17.7778t-83.5 -44.5t-78.5 -102.5q-12 -5 -27 -5zM3413 1216q51.7083 72.9999 85 73q13 0 24 -7t11 -16t-8.5 -17.5q-27.2334 -27.2334 -111.5 -32.5zM2477 760q17.5 -35 68.25 -35t81.75 50.5t31 87q0 68.5 -6.5 74q-14.147 11.9705 -46.5 60.5
q-11 0 -26 -37.5t-15 -41t13 -29.5t13 -37q0 -31 -36 -31q-40.5557 0 -53.7778 21t-26.7222 64.5t-18.5 43.5q-3 -8 -11.5 -16.5t-8.5 -22.5l2 -22v-9q0 -85 -43.5 -85t-57.5 11.5t-18 25.5t-5 37t-11.5 29t-21 -16.5t-10.5 -64.5q0 -80 52 -120q24 -16 62.5 -16t61.5 27z
M4341 623q29.4668 -34.0001 76.2334 -34.0001t76.2666 51.0001t29.5 102.5t-7.5 59t-25.5 34.5t-20 29q-8 0 -22 -36.5t-20 -41.5l20 -36.5q10 -18.5 10 -31t-10 -23t-38.5 -10.5t-44 20.5t-27 66t-15.5 45.5q-3 -10 -13.5 -20t-10.5 -18v-12l2 -17v-11q0 -81 -42.5 -81
t-55 11.5t-18 27.5t-7 38.5t-11.5 28.5t-21.5 -19t-11.5 -65.5t13 -69q29.877 -65.4995 84 -65.5q4 0 10 2q50 0 72 25q1 1 28 50zM5243 1188q27 64.8 27 105.4t-27.5 60.6t-64.5 20t-82 -44t-79 -104q-12 -6 -25 -6t-34.5 9.5t-31 9.5q-56.5625 0 -101.531 -65.5
t-44.9688 -101.5l70 49q35 20 72 20l42.5 -26.5q21.5 -13.5 39 -15t25.5 -2.5h18q68 0 120.5 30t75.5 61zM5075 1207q51 69 84 69t33 -23q0 -18.5 -37 -37q-34.8335 -11 -53.917 -11h-22.083q-3 0 -4 2zM1763 324q48.6 27 129.8 27q156.765 0 287.2 -50
q-141.667 -28.3333 -221 -61q-92.9698 -28.924 -152 -72q-13 -8 -98 -154q-30 -50 -80 -64q-38 -14 -77 -14t-57 14q-7 26 -33 52.5t-64 60.5l-61 -180q33 -27 55.5 -63.5t24 -52.5t2.5 -25.5t-2.5 -29t-4.5 -21.5q-103.089 -192.3 -693 -353q-523.461 -149 -979 -149
q-346 0 -775 118q-239 64 -423.5 155t-265.5 181q-48.0741 59 -108 59q-33 0 -33 -26q0 -13 10 -33q128.075 -163.651 318 -271l197 -101q239 -117 543.5 -176.5t553 -59.5t419.5 16.5t380 66q441.647 104.601 672 249.5q78 50 126 84.5q102.678 73.7997 151 195.5
q24.1152 56.843 28 119q51 0 78 7t47 30q26.6198 22.8169 45 80q29 -28 108 -62t122 -34t68 28q6 7 27 44q32 56.381 32 106.69t-17.5 96.3095t-43.5 70q196.428 55 484 55l155 -19q76 -9 121 -9l76 139q-130.687 0 -458 129q-69 27 -154.5 65.5t-123.5 52t-90 13.5
t-95 -15.5t-111 -82.5l-27.5 -62q-13.5 -30 -13.5 -45.5t1 -28.5zM2164 906q-36 37 -103 55.5t-131.5 18.5q-129.1 0 -179.5 -140q20 0 49 10.5q40.0476 14.5 77.0238 14.5t76.4762 -7.5t42.5 -14.5q0 -18 -76.5 -61t-76.5 -51q8 -1 16.5 -1h22.5q131.907 0 205.5 66.5
q41.5 37.5 77.5 109.5z" />
    <glyph glyph-name="uniFB56" unicode="&#xfb56;" horiz-adv-x="2777" arabic-form="isolated" 
d="M3328 1186l55 -14q12 0 22 4q27 53 66 91t71.5 38t50 -11.5q31.5 -20.7 31.5 -49.6q0 -45.1 -24 -97.9q-24 -28 -75 -53t-120 -25q-33 3 -57.5 19.5l-24.5 16.5q-40 0 -71.5 -21.5l-54.5 -37.5q4 32 38.5 82.5t77.5 56.5q5 2 15 2zM3455 235q11 -62.3333 11 -97.6667
q0 -35.3333 -21.5 -96.8333t-59.5 -98.5q0 73.5 -36 285l-95 492l65 227zM2692 640q32 0 32 27q0 11 -10.5 34t-10.5 27.5t11.5 35.5t21.5 31q5 -3 19 -26.5t20.5 -28.5t6.5 -50t-26 -88.5t-69 -43.5t-62 27l-27 -41q-20 -22 -63 -22h-10q-44.5 0 -76 63q-6 12 -6 43t9 59
t21 23q10 -6.66669 10 -50q9 -23 21 -32.5t48.5 -9.5t36.5 69v9.5q0 4.5 -0.5 17t7 23t8.5 18.5q6 0 20 -44.5t18 -50.5t19.5 -13t30.5 -7zM2844 -49q-64 46.9333 -64 113q0 31.9231 16 69.4615q16 37.5385 21.5 37.5385t7.5 -6q9 -32 40.5 -46t62 -14t71.5 11.5t53 24
t12 29.5q0 20 -8 68l-92 561q-33 8.25 -33 107q0 50 24.5 92t64.5 47q0 -79.6875 29 -125q12 -22 41 -40l53 -33q0 -29 -14 -60.5t-18.5 -35t-13.5 -5.5t-17 -4l65 -434l8 -58q-6 -77 -18 -133.5t-46 -97.5q-34 -36 -76.5 -46t-78.5 -13q-61.0767 -218.131 -222 -314
q-62.3582 -36.3756 -112.679 -40.1878q-50.3208 -3.81219 -108.821 -3.81219t-138.5 41t-101 78q120 -20 184 -20t104.5 12t96.5 43q119.177 53.3626 208 195zM1881 -284l-105 -115l-98 69l-91 -91l-125 102l96 93l36 -25q39 -25 55 -33l95 87zM808 -280q-3 -24 -19.5 -48
t-33.5 -43q-252.295 -170.299 -445 -199l82 100q36 13 115.5 48.5q226.204 104.352 300.5 141.5zM532 -39q-32 17 -64 49l-58 60q-34.25 -39.9583 -45 -74q31 -13 83 -24t84 -11zM2636 26q-1 -23 -18.5 -46.5l-35.5 -45.5q-121 -79 -236.5 -131t-209.5 -66l81 100
q45 15 147.5 61.5zM3458 1162h22.0454q19.0454 0 48.5 13.5t29.4546 29.5t-30.1316 16t-72.8684 -58q0 -1 3 -1zM1784 250l-92 -7q-10 0 -16 1q93 199 220 199q53.0883 0 155 -55q189.363 -92.3721 234 -103q41 -16.7037 137 -34.3519q161.276 -29.6481 280 -29.6481
l-84 -138h-289q-21 0 -104 -34l-172 -70l-109.5 -46.5t-103 -25.5t-62 6.5t-30 9q-41.1923 7.6282 -60.5 20.5q-77 -49 -268 -86t-321 -37h-114q-104 0 -188 16t-123 35q-26.7429 -65.3714 -66 -85q-10 -3 -38.5 -3t-88 16t-97.5 32l-28 -52q-34 -56 -67.5 -87
q-64.5655 -59.7472 -167.5 -76q-25.5 -6 -87.75 -6q-82.25 0 -160.25 6q33 13 138 62.5q262.383 123.695 280 169.5q-22 35.75 -22 81.375q0 75.625 45 165.625q19 43 53.5 70t78.5 38q200.07 -247 577 -247h46q25 0 93 -1t162.5 8.5t165.5 32.5t108.5 40.5t81 42.5l85.5 50
q4 -10 4 -21.5t-12 -47.5q20.4 -17 48.7 -17l37.8 7.62939e-06q9.5 0 20.5 1q76 0 153.5 33l148.5 64q-82 48 -159.5 78.5t-177.5 30.5h-45zM2818 1087q-9 -22 -37 -55l-241 -137q-161 -90 -265 -135q-12 13 -12 32q0 66 544 344z" />
    <glyph glyph-name="uniFB57" unicode="&#xfb57;" horiz-adv-x="8169" arabic-form="final" 
d="M7640 1307l-198 120l-107 -167l-182 124l111 188l192 -111l105 155l191 -108zM7398 815q24 -90 98 -90q59.4736 0 128 42q-13.2222 37.7776 -36.1113 66.3888q-47.6885 59.6114 -83.8887 59.6112q-36 0 -52 -12q-33.4736 -16.7368 -54 -66zM7211 221l27 -1q160 0 272 32
t207 104q58 45 58 83q0 59.5 -63 145q-38.8628 -80.1545 -100.432 -115.577q-61.5684 -35.4227 -121.068 -35.4227t-102.5 22t-47 35q-26 26 -37 47q-38 65 -38 150.5t28 158.5q8 24 27 55q114.452 253 232 253q68 0 121.5 -63.5t80 -127l34.5 -82
q30.3086 -70.0886 53.6543 -198.294t23.3457 -213.706q0 -124.447 -55 -205.5q-51.2354 -99.6243 -138.118 -160.812t-176.882 -82.1879t-201 -21h-136q-84 0 -159 75q-113 108.388 -113 265l-77 1142l125 283l78 -1302q0 -43 10 -83v-16l10 -23l22 -40q59 -80 104 -80h52z
M6417 1765q0 -77.0543 159 -141q-15 -47 -37.5 -109.5l-44.5 -118.5l-18 24q0 -117 27 -390t38 -408t11 -318l1 -28l-23 -101q-28 -126 -77.5 -234q-77.4912 -169.072 -242.5 -263q-59 -34 -127 -64q-170 -71 -345 -71l-117 8l-31 1q-15 0 -31 3.5t-25 6.5l-28 12
q-111 28 -177.5 98q-128.5 135.263 -128.5 294.132t27.5 257.368t78.5 178.5l83 135l23 34l34 -16l-76 -145q-61 -189.1 -61 -245q0 -158 98 -244q132.186 -116 338.093 -116q205.907 0 385.407 79.5t255.5 164.5q23 26 29 56.5t6 159t-23 366.5l-47.5 477.5
q-24.5 239.5 -24.5 415.5q-32 25 -32 92t33 134t89 91q10 -8 10 -22zM4641 1113l-187 126l-122 -159l-180 125l121 189l189 -122l121 155l176 -126zM4274 0q-23.1816 16.9999 -78 17h-46q-23 0 -71 13t-105 45q-43 28 -113 96l-59 63q-75.4109 -71.5437 -144.706 -111.772
q-108.847 -63.1898 -255.294 -101.228l-84 -15l-74 -6h-49q-50 0 -117 19.5q-118.161 34.3903 -178 158.5q-38 78 -38 162l-77 1142l125 283l78 -1302q0 -43 11 -83v-16l10 -23l21 -40q26 -36 79.5 -58t85.5 -22h81q92.5386 0 138.269 13.5l64.2307 19
q44.3757 13.1928 98.5 46.5l35 20q25 16 49 40l-79 65q-98.4067 66.117 -237 84l122 229q76 39 160 58.5t123 19.5q62 0 99.5 -5t76.5 -21l48 -18q36 -16 66 -48.5t45.5 -61.5t15.5 -69t-21 -74l-25 -41q-21 -36 -70 -89l-44 -46q42 -53.6667 110 -82l65 -20l81 -17l85 -3
h136q74.4229 9.92305 160.211 33.9615q85.7886 24.0385 126.789 52.0385l13 16q4 5 7 25l-2 21l-6 23q-7.37354 49.7714 -46.6865 116.386q-39.876 67.5674 -74.3135 110.614l117 221q13 -22 36 -78l18 -45l27 -99l16 -74l3 -22l4 -41l2 -50q0 -18 -1.5 -40t-4 -45
t-13 -58.5q-21.979 -74.31 -74.7393 -148.905q-68.1133 -96.301 -265.761 -131.595q-16 -2 -45 -7h-141zM2497 767l-4.82349 -166.322q-2.03442 -66.8818 -30.1765 -145.678q-8.05786 -47.0042 -50.5288 -116.502q-42.4712 -69.4979 -76.4712 -97.9979t-73 -44.5
q29 -5 59.5 -9t78 -11.5t92.5 -30.5t60 -41.5q24 -29.6 24 -71.55q0 -85.55 -34 -139.95q-19 -38 -50 -81t-44 -48q-49 -67 -171 -147.5t-295 -138t-357 -57.5q-13 -1 -20.5 -1t-10.5 1q-110 0 -252.5 43.5t-207 108.5t-106 154t-41.5 164l-3 56q0 18 3 26q0 89 54.5 248
t129.5 243q15 15 22 24q8 -4 21 -30t16 -30q-59 -69 -91.5 -172t-32.5 -212q-5.427 -18.09 13 -66q21 -121 136 -203q138 -100 358 -100q5 -4 16.5 -3t16.5 1h15q7 0 73 1t129 13q74 20 134 34q156 37 252.5 95.5t170.5 118.5q-95 41 -222 62t-152 36t-41 33.5t-16 57.5
t14.5 75.5t32.5 69.5q40.0466 73.4188 89 93q109 22 168 67q94 73 94 176l-12 69q-5 58 -5 154q-1 0 -18.5 118.5t-31 269t-13.5 309.5q-33 22.6875 -33 90.8438t33 135.156t88 91q11 -8 11 -22l-9 -54q0 -76.3517 159 -141q-15 -47 -37.5 -109.5l-44.5 -118.5l-18 19
q0 -11 -1 -43.5t9.5 -188q28.1238 -416.5 32.5 -416.5zM258 691q33 23 73 23q68 0 104 -56q23 -34 23 -74q0 -67 -56 -104q-34 -23 -73 -23q-67 0 -105 57q-22 33 -22 73q0 67 56 104zM258 116q33 22 73 22q68 0 104 -56q23 -34 23 -74q0 -66 -56 -103q-34 -23 -73 -23
q-67 0 -105 56q-22 34 -22 73q0 67 56 105z" />
    <glyph glyph-name="uniFB58" unicode="&#xfb58;" horiz-adv-x="1361" arabic-form="initial" 
d="M1264 -693q25 -21 25 -40t-29 -19q-92 0 -275 182q-241 235 -377 598q-251 3 -251 65q165 173 165 268q-74 0 -160 -88t-98 -88q-46 0 -66 195q-133 65 -133 115q0 55 125 129q13 187 59 187q184 -173 273 -173q-9 93 -94 175.5t-85 93.5q0 20 78 43.5t180 27.5
q87 261 217.5 443t248 275t160.5 93q24 0 24 -28q0 -11 -97.5 -120.5q-249.327 -280.013 -308.5 -674.5q119 -19 119 -54q-168 -171 -168 -265q86 0 258 176q21 0 44 -63.5t26 -132.5q127 -67 127 -121q0 -44 -119 -114q-10 -193 -67 -193l-81 78q-83 82 -183 92
q0 -86 88 -172t88 -101q0 -28 -130 -54q39 -196 157 -404t260 -331zM1146 1701q-334 -226 -514 -779q-145 -8 -172 -12t-27 -19l47 -45q58 -54 94 -126q54 98 88 98q23 0 78 -98q12 29 74 84t62 96q0 12 -36 19l-56 10q72 292 130.5 430t231.5 342zM1075 425q111 62 111 91
t-111 66q-13 152 -30 152q-9 0 -68 -60t-123 -83q115 -51 115 -90t-110 -81q79 -27 141 -84l54 -50q21 0 21 139zM769.5 395q45.5 44 45.5 107t-45.5 108.5t-110 45.5t-109.5 -45.5t-45 -108.5t45 -107t109.5 -44t110 44zM463 418q-113 50 -113 89.5t111 79.5
q-33 10 -93.5 73t-103.5 63q-22 0 -22 -141q-110 -63 -110 -87q0 -31 110 -70q13 -152 29 -152q9 0 66 55q62 65 126 90zM1200 -684q-136 122 -252 325.5t-152 440.5q94 8 94 26l-52 49q-60 57 -98 131q-44 -99 -80 -99q-48 0 -81 99q-34 -81 -88 -136l-45 -49
q0 -10 111 -21q30 0 84 4q164 -516 559 -770z" />
    <glyph glyph-name="uniFB59" unicode="&#xfb59;" horiz-adv-x="1361" arabic-form="medial" 
d="M1295 544q0 -58 -126 -131q-13 -188 -59 -188q-183 173 -273 173q10 -92 95 -174t85 -93q0 -20 -78 -44.5t-180 -27.5q-86 -260 -217 -442.5t-248.5 -275.5t-151.5 -93t-34 25q0 12 97.5 122.5t167.5 237.5q105 197 143 437q-121 21 -121 55q170 172 170 267
q-88 0 -258 -178q-23 0 -45 63t-26 133q-128 68 -128 120q0 46 119 117q13 190 67 190l82 -78q83 -81 184 -91q0 86 -89 172.5t-89 99.5q0 28 131 55q-38 197 -156 404t-262 331q-25 22 -25 40.5t30 18.5q91 0 275 -180q241 -236 377 -599q251 -3 251 -67
q-166 -173 -166 -267q74 0 160.5 89t97.5 89q46 0 67 -198q133 -65 133 -112zM914 934q0 11 -111 22q-29 0 -83 -4q-168 516 -561 772q137 -127 253.5 -329.5t152.5 -438.5q-96 -8 -96 -27l52 -49q62 -56 98 -130q47 99 81 99q48 0 81 -99q34 79 88 135zM1118 455
q110 64 110 90t-110 67q-13 152 -30 152q-10 0 -69 -60.5t-122 -84.5q113 -50 113 -89.5t-110 -79.5q32 -11 92 -73t103 -62q23 0 23 140zM809.5 426q45.5 46 45.5 108.5t-45.5 106.5t-109 44t-109 -44t-45.5 -106.5t45.5 -108.5t109 -46t109 46zM506 447q-115 49 -115 90
t110 80q-80 26 -142 83l-52 52q-22 0 -22 -140q-112 -62 -112 -91t112 -66q14 -153 26.5 -153t72 61t122.5 84zM926 145l-47 47q-56 53 -94 125q-51 -98 -87 -98q-24 0 -79 98q-26 -66 -85 -125l-51 -54q0 -12 32 -18.5t60 -11.5q-69 -291 -128.5 -428.5t-233.5 -342.5
q336 227 514 779q145 6 172 10.5t27 18.5z" />
    <glyph glyph-name="uniFB5A" unicode="&#xfb5a;" horiz-adv-x="3600" arabic-form="isolated" 
d="M2701 1256l139 -43v-10q0 -93 -234 -181h-23v21l98 86v21h-117l-76 -53h-21q0 75 116 148h76zM3053 1001q223 -217 223 -437q0 -190 -116 -190v-12l-193 43q-58 -118 -127 -118q-54 0 -128 65h-31q-113 -65 -171 -65q-103 0 -192 107h-32q-320 -161 -820 -161v-9l-10 9
h-54l-11 -9l-32 9q-158 0 -467 66l-66 -43l-201 43h-21q-138 -209 -341 -257l-182 -53h-31v11q6 19 447 287l21 53l-10 97q0 166 159 223q222 -223 383 -223q0 -17 300 -53q715 0 1043 191l21 -31l-11 -12v-53q0 -49 148 -53q121 0 236 159h9l12 -32l-21 -63v-21l116 -32
q71 169 97 169h9q15 -84 44 -84h127q34 0 34 42q-65 149 -183 299l-11 32q8 106 33 106zM635 564l-42 -54v-10q7 -31 85 -31h32q0 76 -75 95zM3160 233h32l95 -85v-21q-35 -74 -95 -74q-45 18 -97 74q30 84 65 106zM966 95h11l21 -22v-9q-38 -77 -447 -202l-22 21
q0 94 244 138q8 18 193 74zM3488 11l11 -11v-11q0 -64 -223 -95q-45 -39 -245 -75q-3 -20 -64 -32v21q0 99 384 181q0 16 137 32v-10z" />
    <glyph glyph-name="uniFB5B" unicode="&#xfb5b;" horiz-adv-x="1215" arabic-form="final" 
d="M1491 1667h21q54 -29 54 -86q0 -146 -266 -191l-97 31l-85 -64l-11 11q43 103 128 160l65 -22h9q118 161 182 161zM948 1602l32 -11v-10q0 -101 -310 -160q-30 -30 -286 -117l-11 11v42q0 49 394 171zM1396 1506h20q56 0 64 32v12q0 20 -31 20q-53 -17 -53 -64z
M1300 1325h20q150 -852 150 -947q-33 -159 -54 -159l-160 936q15 170 44 170zM895 1284h21l21 -129q0 -130 -224 -160q-23 -31 -77.5 -31t-72.5 62q36 119 54 119t33 -74h31q29 0 75 148h32q10 -105 33 -105q43 15 43 31v74q5 65 31 65zM1043 867l117 -340q20 0 43 -107v-64
q0 -160 -107 -201q-96 0 -222 95q-129 -128 -171 -128l-65 -20h-21q-138 0 -180 201h-32q-85 -75 -138 -75h-97q-75 0 -75 53q0 207 332 353q20 84 41 84h22q14 -457 127 -457h64q63 0 140 95q0 138 -45 342q18 137 45 137h21q49 -510 201 -510l44 -11h31v21
q-118 342 -118 405q20 127 43 127zM244 410v-22h161l22 22v76l-22 19q-152 -61 -161 -95zM458 49h10l11 -34q0 -68 -469 -223h-10v11q0 99 201 139q218 107 257 107z" />
    <glyph glyph-name="uniFB5C" unicode="&#xfb5c;" horiz-adv-x="5123" arabic-form="initial" 
d="M5111 1795q57 0 85 -95q0 -150 -256 -213l-117 31q-75 -8 -75 -62h-32q6 72 118 169l96 -10q116 180 181 180zM4993 1593h12q116 12 116 75l-32 20h-31q-65 -36 -65 -95zM4483 1636l11 -31q0 -56 -491 -235l-22 -21h-31v10q0 99 267 171q201 106 266 106zM4568 1509h10
l96 -170l-43 -107v-12l129 -776q0 -148 -182 -234q-130 -395 -297 -395q0 -31 -182 -42q-224 64 -372 159v22l31 11q101 -65 223 -65h87q321 0 426 331q-64 13 -64 127l10 54h10l86 -21h42q106 3 106 53q-139 843 -190 937q56 128 74 128zM3578 1498l31 -21q0 -75 -414 -226
q-12 -31 -65 -31h-10v44q0 65 458 234zM4898 1402h11q38 0 159 -862l12 -182q-12 -116 -44 -116q-160 977 -160 1085zM3674 1251q212 -21 212 -73q-85 -159 -266 -159l-32 11v20q92 33 128 85l-107 21q-65 -41 -96 -41v31q77 105 161 105zM4408 1210l22 -117
q0 -146 -255 -169h-34q-64 26 -64 84q22 75 44 75q20 -49 42 -53h31l13 10q33 106 53 106h21q10 -96 31 -96q39 0 65 149l10 11h21zM3142 1030q117 -160 117 -256v-127q0 -57 -33 -65q-53 205 -127 383q25 65 43 65zM2906 890q80 0 117 -106q0 -56 -64 -95q-65 0 -116 85
q45 116 63 116zM3651 880q39 0 257 -127q168 -74 394 -118l10 -11q-36 -117 -105 -117l-161 33q-426 -17 -426 -75l31 -149q0 -159 -95 -159q-69 0 -255 95q-171 -37 -171 -171q-280 -544 -1564 -618q-822 0 -1343 342q-223 203 -223 255l10 12h12q701 -448 1522 -448
q877 0 1448 404l84 107v32q0 46 -64 213v42q7 65 33 65h12q65 -129 169 -129t192 149q141 82 352 128l10 12v11l-160 41l-171 -33v13q49 201 202 201zM3438 391v-22q8 -32 87 -32h10v10l-44 44h-53zM3386 -132h10l22 -21q0 -86 -330 -192l-182 -73h-9v42q1 48 329 170z" />
    <glyph glyph-name="uniFB5D" unicode="&#xfb5d;" horiz-adv-x="818" arabic-form="medial" 
d="M3656 1884h22q54 -22 54 -117q-83 -160 -225 -160h-21l-107 20q-31 0 -31 -32l-11 -10h-20v10q0 93 95 138l42 -20q23 0 117 127q46 44 85 44zM3571 1744v-20h42l31 31v23h-9q-64 -7 -64 -34zM3092 1617l107 -192q-14 -62 -54 -106l119 -756q0 -229 -205 -256
q-42 0 -84 -160q-178 -255 -342 -255q-224 0 -456 138v22l10 10v12q155 -76 277 -76v12l10 -12h11q294 0 458 299v43q-32 38 -32 73v54l21 32l118 -21q149 18 149 64l-182 958v21q57 95 75 96zM2890 1542l21 -42q0 -54 -278 -128q-299 -138 -361 -138v21q0 80 192 128z
M3422 1532h32l137 -948v-54q0 -121 -31 -201h-22l-137 1075zM2880 1211h10l10 -53v-63q0 -128 -244 -160q-82 0 -96 44v31l20 75h34q0 -31 42 -53q29 0 75 116l9 10h22l11 -53v-31h42q22 0 31 118zM1985 787q357 -172 702 -172h44l31 -31v-11q0 -58 -75 -117l-127 22h-43
q-122 0 -469 -171l-170 -42q-78 0 -170 85h-21q-272 -160 -480 -160l-340 33q-22 -42 -54 -42l-191 42q-147 -207 -384 -266q0 -20 -107 -43h-9l-22 21q9 37 255 158q172 136 172 194v53l-12 10q62 255 160 255q23 0 181 -158q148 -97 278 -97q420 0 574 170q20 0 42 -85
l65 -22h84q126 0 320 117q-114 75 -256 75v-10l-10 10h-21l-170 -32v11q0 135 223 203zM622 467v-64l85 -21q-13 107 -44 107h-20zM2464 307l10 -10v-10q0 -97 -416 -204l-10 -9l-32 -22l-31 10v12q0 86 309 169zM1644 128q118 -22 118 -118q-45 -75 -65 -75h-10
q-37 0 -75 32h-10q-43 0 -106 -64q-58 0 -130 95q58 94 75 95h11l118 -41zM803 -43l10 -12v-31q-27 -66 -415 -204h-9v12q0 106 414 235z" />
    <glyph glyph-name="uniFB5E" unicode="&#xfb5e;" horiz-adv-x="6891" arabic-form="isolated" 
d="M6382 550q-165.133 0 -384 -134l-44 -24l-148 -102l-169 -110l272 8q166 0 334 32.5t207 43.5q101 28 206 97q0 39 -29 71.5t-46 40.5l-57 38q-74 39 -142 39zM5386 -66q0 6 8 66q-49.9302 0 -119 66q-57 61 -57 140q-29 -70 -95 -133l-29 -24q-66.4863 -43.691 -183 -49
h-78q-93.1709 0 -170 75q-19.936 18.512 -32.4678 38.756l-21.5322 35.244q-3 8 -19.5 47t-24.5 106l-51 -97q-15 -24 -32 -40l-75 -52q-108.591 -74.4274 -252 -91.5q-21 -2.5 -85 -2.5l-121 1q-19 0 -47 8q-59 11 -102 54.5t-55 105.5l-4 55v31q0 16 11 54q3 25 12 49
q13.8262 36.8698 26 60h39q4 -41 9.5 -55.5t16.5 -29t19 -24q19.0769 -22.6538 56 -36.5q5 0 29 -5t49 -8q41.6667 -5 92 -5q21 0 38.5 1.5l39.5 3.5q62 5 126 22l74 21q38 11 66.5 28t47.5 33l42 40q3 39 -22 184l-50 252l-28 129l107 262l59 -223q7 -25 32 -198l45 -307
q23.1362 -156.17 31 -166q11.314 -79.1978 96 -123q27 -12 56 -12h36q38 0 62.5 6.5t43 10t46.5 17.5l119 71l41 45q46 54 67 101l32 -5l6 -56l7 -53q4 -28 17 -51q20 -46 83 -74l54 -18l480 353l75 51q159.489 107.655 281 138.5q65 16.5 140 16.5t119 -10t88 -38.5
t86 -80.5l35 -49l13 -36q15 -46 15 -90l-4 -43q-14 -80 -53 -144q-13 -24 -37 -50l-33 -30q-93 -74 -220.5 -121.5t-343 -71.5t-401.5 -24l-110 -1l-91 -3l-19 -51q-4 -12 -6 -17l-14 -63q-13 -86 -13 -161q-23 7 -43 27l-34 43l-2 46v86zM3367 1304l-113 -201l-197 120
l-97 -155l-192 112l110 188l192 -111l106 155zM3285 312q-72.6511 -142 -217 -142q-59 0 -102 21t-47 34q-26 27 -37 49q-38 64 -38 149.5t28 158.5q8 24 28 55q38 84 64 126q83 127 167 127q38 0 78 -29.5q89.9009 -66.3019 184 -254.5l41 -92q6 -16 16 -52
q31 -111.6 31 -221v-62l-9 -59q-17 -112 -46 -166l-53 -98q-10 -20 -78 -86q-55 -44 -128.5 -82t-160.5 -72q-346.912 -135.575 -555.456 -175.287q-208.544 -39.7126 -391.044 -55.7126q-273.75 -24 -423.5 -24h-42q-281.333 0 -490.167 26.5q-208.833 26.5 -339.833 56.5
t-343.5 109t-355.5 163t-293 217q-23 22 -44 57t-24 51q0 29 30 29q66 -44 131.5 -79t129.5 -63l190 -80q186 -77 333 -121t313.5 -76t298 -46q206.643 -22 431.071 -22t390.929 12t388 50q441.265 75.7024 718.5 188q319 126 319 251q0 20 -4.5 34t-8.5 39.5t-7.5 45.5
t-19.5 40q-9 36 -24 49t-28 20zM3202 503q-10.5505 35.1685 -34.7754 64.5842q-50.5774 61.4158 -85.2246 61.4158q-34 0 -52 -12q-33.4736 -16.7368 -54 -66q9 -30 18 -45q29 -46 70.5 -46t69 10.5t68.5 32.5zM2474 -4l2 151l3 158l-75 1122l119 337l83 -1451
q0 -62 -41 -163t-91 -154zM2080 310q69.8545 0 85 119q0 58 -26 151l-59 200q-43.4286 162.286 -67 288q12.6316 56.8422 28.8158 101.421q38.4613 103.109 64.1842 165.579q21.2749 -155.307 63 -326l60 -258q29 -136 29 -256.5t-36.5 -215.5t-80 -146t-53.5 -54
q-8 -9 -38.5 -18.5t-59.5 -9.5q-97 0 -183 67t-120 228q0 -129 -95.5 -237t-225.5 -108t-209 79q-95 98 -119 313q0 -49.5714 -13 -83q-31 -90 -111.5 -116.5t-202 -26.5q-251.397 0 -264.5 73q-9 30 -9 57q0 80 51.5 145.5t123.5 122.5t165 114q154 94.3871 224 126
l-18 103l44 96q24 55 58 103l20 -146l14 -139l29 -347q0 -94.125 63.5 -155.562t174.5 -61.4375q70 0 139.5 56.5t98.5 139.5q0 106 -18.5 262.5q-31.6152 267.448 -63.5 437.5l100 240l52 -348l56 -447q8.24329 -57.703 22.1216 -93.8515
q60.4261 -157.389 243.878 -190.148q28 -5 63 -5zM1008 678l-73 -37q-213.435 -115.304 -291 -217q176 0 255 19t125 58z" />
    <glyph glyph-name="uniFB5F" unicode="&#xfb5f;" horiz-adv-x="5874" arabic-form="final" 
d="M5918 -4l6 309l-75 1122l118 337l84 -1451q0 -62 -41.5 -163t-91.5 -154zM3534 1004l-191 134l123 209l187 -135zM3963 403q0 49 -62 100q-77.52 57 -192 57h-21l-23 -3q-110 -11 -211 -69l-160 -96l-250 -172l84 1l75 3q91 0 155 9q100.141 14.0823 209 37
q234 47 396 133zM2384 -429l-190 122l-108 -167l-183 116l105 191l202 -117l98 162l196 -117zM1567 170l-1 23l-2 11l-2 6l-6 13l-11 28l-9 18l-11 25q-40 86 -85 86q-13 0 -67 -29q-37 -28 -49 -67q0 -18 107 -65l73 -31zM2793 -195q0 64 4 110.929q4 46.9286 14 84.0714
h-142q-171.133 7.77878 -235 141.5q-16 33.5 -16 64.5q-33 -97 -110.5 -143t-138.5 -54.5t-102 -8.5h-31q-141 0 -224 48q-33 18 -77 74q-29 -106 -109 -199l-62 -20q-36 0 -179.5 58t-182.5 99l-95 -168q-23 -41 -155 -142q-72 -54 -259 -94q-252 -45 -528 -45l589 265
l197 98q88 43 182 148l98 213q56 127 117 179q16 16 77 50l49 12l43 4q62 -7 145 -146q100 -111 173 -158q44 -21 98 -39q62 -16 101 -16h33q64 11 134 26.5t100 40t64.5 78t53.5 115.5l46 2v-24q0 -78.75 -13 -108q44.5122 -103.383 219 -130h124
q105.693 14.2279 150.846 72.1139q45.1538 57.8861 67.1538 197.886l14 111l-5 214l-74 531l-48 248l-1 24q0 75 44 139l24 34l22 28l155 -219l-27 -26q-61 -75 -61 -219l18 -99l18 -116l16 -146l15 -164l5 -4l-5 -194l-5 -29l-10 -81l-21 -136l202 171l106 83l100 67
q108 65 170 76l55 7l54 2q118 0 209.5 -54t122.5 -155l11 -39l5 -26l1 -16q0 -33 -20 -83.5t-71 -125.5l-67 -64q-16 -13 -36.5 -25.5t-35.5 -19.5l245 36h141q93.231 0 138.615 13.5l63.3848 19q38.4326 11.7433 55.2163 21.1216l78.7837 45.3784q25 16 49 40l-79 65
q-95.6533 65.2872 -236 84l121 229q75 39 159.5 58.5t124 19.5q61.5 0 98.5 -5t77 -21l48 -18q36 -16 66 -48.5t45 -61.5t15 -69t-20 -74l-26 -41q-20 -36 -69 -89l-45 -46q41.5161 -53.0484 111 -82l65 -20l82 -17l83 -3h17q63 0 86 9.5t51 22.5q65 23 85 42q40 36 40 115
l-82 1114q-32 22 -32 90.5t32.5 135.5t88.5 91q11 -8 11 -22l-8 -54q0 -76.7583 158 -141l-50 -140q-10 -32 -32 -88l-18 19q-1 -13 -1.5 -86t44.5 -718v-147q0 -56 -5.5 -96t-14.5 -69q-10.1323 -77.0057 -75.5 -153.5l-44.5 -52.5q-29 -26 -71.5 -48l-52.5 -27
q-41 -18 -106 -18q-25.5 0 -73.25 1.5t-102.25 15.5q-86.7788 22.2918 -151.5 58q-43 28 -114 96l-59 63q-117.455 -114.364 -273 -175q-50 -18 -127 -38l-83 -15l-75 -6h-1314q-61 -137.25 -61 -310q-21 7 -42 27l-34 43l-2 24v21z" />
    <glyph glyph-name="uniFB60" unicode="&#xfb60;" horiz-adv-x="81" arabic-form="initial" 
 />
    <glyph glyph-name="uniFB61" unicode="&#xfb61;" horiz-adv-x="7063" arabic-form="medial" 
d="M5987 1420q9.32275 9.17725 24 13q231 -30 252 -74q0 -50 -116 -123l-179 -55q-37 12 -37 24v6q0 28 147 68l50 30q0 27 -123 37h-30q-21 0 -123 -62v25q61 111 135 111zM6251 578q10.0234 -7.97675 12 -24h7q-19 -50 -19 -93q57 -36 98 -36h37q39 17 98 165l38 31h11
l7 -31l-7 -42q73 -50 142 -50h61l31 7v12q-14 176 -196 381q-63 0 -111 117q7 166 42 166q326 -332 326 -645q0 -198 -123 -198h-12q-30 0 -209 75h-12q-12 0 -104 -124l-49 -12q-79 0 -160 61q-189 -92 -277 -92q-117 0 -172 135h-13l-404 -104q-423 -92 -891 -153h-25
q-305 -56 -1099 -105q-312 -30 -966 -30h-31l-6 -7l-18 7q-644 0 -1193 123q0 14 -159 36q-32 -86 -55 -86q-141 18 -295 55q-98 -176 -308 -252l-141 -31l-6 7v18q200 102 388 271l11 25l-11 42q0 205 152 270l57 12q43 0 190 -134q311 -130 498 -135q0 -34 878 -75h117
l6 7l5 -7l216 7h265l424 31l23 -7q892 69 1273 130q323 37 547 85q467 86 645 173q31 -8 31 -18v-19q-25 -34 -25 -61q0 -36 110 -56h38q169 0 258 111q10 41 49 67h6zM567 326v-24q95 -56 148 -56h48q-63 148 -116 148q-39 0 -80 -68zM6632 204q12 0 91 -80v-7
q0 -55 -85 -116q-92 58 -92 92q38 97 86 111zM6939 -6h6l19 -24q0 -61 -179 -98q-231 -92 -386 -136h-7l-11 13q0 74 98 92zM1102 -48l6 -18q0 -54 -147 -111l-302 -142h-19v7q0 85 62 85l375 172z" />
    <glyph glyph-name="uniFB62" unicode="&#xfb62;" horiz-adv-x="1468" arabic-form="isolated" 
d="M1704 1895q67 -21 67 -80v-12q0 -116 -146 -178q-25 -13 -68.5 -13t-159.5 55h-19q-13 -2 -61 -80l-6 7h-7q0 71 99 160h19q48 -38 73 -38q14 0 73 87q84 92 136 92zM1563 1710l18 -12h31q116 24 116 80q-19 37 -49 37q-70 0 -116 -105zM1083 1754q9 0 19 -25
q0 -51 -191 -111q-164 -79 -497 -196l-6 18q0 83 227 135q90 48 276 110q135 69 172 69zM1520 1564h18l7 -44v-67l121 -621q44 -235 44 -289q-12 -219 -44 -295h-23q0 388 -136 903q-37 198 -37 271q28 142 50 142zM1028 1459h6q25 0 25 -75v-54q0 -111 -154 -142l-49 6
q-57 -54 -116 -54h-7q-80 5 -80 79q12 92 37 92h12q0 -80 56 -80t85 43v43q0 73 38 98q19 -6 19 -36v-75l23 -23h25q55 9 55 36l-5 92q0 32 30 50zM1182 1114q22 0 55 -227q141 -333 141 -374q-13 -289 -130 -289t-257 134h-12q-111 -149 -154 -159l-92 -31q-116 0 -166 117
l-19 123h-24q-87 -117 -246 -117q-122 0 -122 37q0 137 208 313q148 82 160 111q24 67 37 67q22 -44 56 -368q32 -105 80 -105q0 -8 54 -11q197 48 197 165v18q-74 374 -74 467q24 75 37 75q25 0 61 -278q31 -85 51 -221q41 -101 125.5 -139.5t124.5 -38.5q26 9 26 19v24
l-99 258q-38 103 -74 265q0 92 56 165zM285 469v-18l31 -6h61q160 25 160 49q-5 104 -25 104h-6q-153 -56 -221 -129zM537 94q30 -9 30 -37q-29 -67 -86 -67q-197 -118 -363 -179h-12l-6 25q0 69 203 136z" />
    <glyph glyph-name="uniFB63" unicode="&#xfb63;" horiz-adv-x="5876" arabic-form="final" 
d="M5702 1897q64 0 80 -91q0 -114 -178 -179l-68 -6q-24 0 -98 55h-12l-43 -55l-7 6h-5q34 118 67 135h13q45 -36 67 -36h6l123 152zM5586 1732v-18h36q48 0 105 54v19q-10 25 -43 25h-30q-35 -27 -68 -80zM3982 1762h19l5 -18q0 -59 -245 -166l-289 -154l-12 12
q0 68 227 173q229 130 295 153zM4947 1701q25 -6 25 -37q0 -46 -210 -123l-375 -178l-19 25q0 68 216 141zM5150 1639l54 -123q19 -12 38 -67l-38 -86l142 -755q0 -265 -68 -265q0 -32 -159 -67q-71 -131 -117 -252q-159 -252 -320 -252h-79q-119 0 -431 98l-12 36v7l25 6
q136 -49 221 -49l31 6l91 -6q151 0 351 154q148 190 148 263q-98 57 -98 111q7 99 23 99h7q70 -56 196 -56q118 23 118 74v13l-173 890q-12 0 -25 74q0 63 75 147zM5586 1584h11q21 0 32 -215q110 -542 141 -817q0 -159 -43 -289h-12l-18 19l5 92v18q0 173 -123 787
q-30 136 -36 288q27 117 43 117zM4068 1486q202 -14 202 -43v-7q0 -96 -251 -190h-31v12l154 105l5 25l-5 6h-93q-80 0 -135 -68l-18 7v11q51 142 172 142zM4910 1375q16 0 31 -117q0 -87 -136 -128l-36 5h-7l-104 -36h-30q-21 0 -44 86q0 29 31 92h6q12 0 12 -67l43 -31
q63 0 73 110l20 44h24l6 -44v-56l19 -18h36l25 25v6l-7 67q20 59 38 62zM3410 1302h12q104 -108 142 -270q18 -52 25 -123l-7 -38l7 -6v-6l-25 -79h-13q-18 180 -67 294l-104 172q15 56 30 56zM4154 1087h12q68 0 234 -117q322 -166 504 -166v-13h6q-32 -75 -105 -129
q-156 74 -478 74q-123 -9 -123 -30q18 -84 18 -178q-28 -111 -98 -111h-7q-135 0 -264 98h-12q-112 -135 -283 -135q-15 -13 -61 -185q-73 -150 -363 -350q-211 -129 -615 -245q-431 -93 -719 -93l-141 6l-24 -6l-62 6h-25l-5 -6l-6 6h-44l-98 13h-19l-6 -6l-467 91l-263 92
q-287 104 -517 332l-123 142v25h25q273 -203 522 -314q561 -203 829 -203q0 -7 228 -23l6 5l49 -5q860 0 1401 294q172 73 375 276q37 61 37 98v13q0 62 -104 196v19q0 63 42 123h7l110 -129l116 -13q160 28 160 69q154 190 221 190l296 42v7q0 44 -221 80q-66 0 -196 -56
v13h-7q82 203 258 203zM3208 1012h11q87 -68 87 -110q0 -23 -55 -104h-25q-14 0 -92 86v12q0 52 74 116zM3926 644q62 -67 203 -67l6 6v18q-52 92 -91 92h-31q-53 0 -87 -49zM3846 11l13 -18q0 -64 -159 -117q-386 -162 -431 -191h-18l-7 25q0 75 301 173q271 128 301 128z
" />
    <glyph glyph-name="uniFB64" unicode="&#xfb64;" horiz-adv-x="4393" arabic-form="initial" 
d="M7357 1919q80 0 98 -116q0 -75 -153 -166l-80 -19l-116 37q-28 0 -80 -73h-20v12h-5l85 160h20l73 -25l117 159zM7247 1723v-13h18q63 0 129 75v5q-16 37 -67 37q-34 0 -80 -104zM6564 1625q20 -7 25 -25q0 -61 -259 -141q-373 -160 -473 -191l-11 13q0 87 152 116
q5 12 566 228zM6755 1600h6q13 -1 62 -129q24 -25 24 -64t-24 -77v-31q110 -503 122 -621q-10 -270 -73 -270q-162 -38 -167 -55q-147 -437 -386 -437h-43q-381 49 -381 87q-29 11 -31 24v5l24 25q135 -48 221 -48q278 0 462 226l67 142v6q-74 66 -74 124q13 111 31 111h7
q0 -60 128 -82q148 12 148 62l-160 781q-11 0 -25 85q0 62 62 136zM7197 1533h12l7 -26l-7 -30q0 -48 118 -682q23 -150 23 -256t-36 -235h-7q-23 0 -42 374q-111 574 -118 688q0 86 50 167zM6546 1343q25 -36 25 -118q-39 -104 -149 -104l-11 12h-19q-55 -43 -98 -55
q-59 0 -80 85q26 94 49 105h13l-6 -80l24 -18h25q55 0 55 98l18 37h7q11 -3 36 -92l6 -6h13q61 8 61 25v29q0 71 31 82zM5545 960q248 -80 466 -134q158 -31 247 -31h12v6l31 -6h73l37 6l18 -19h6q-63 -139 -86 -141l-48 13h-130q-169 0 -479 -136q-109 -52 -283 -103
q-51 0 -227 98h-19q-296 -233 -977 -376q-429 -85 -1136 -141h-55l-7 -5l-6 5h-5l-130 -18l-37 6l-154 -12l-18 6l-98 -6h-62l-221 12l-25 -6l-313 31v-6q-604 67 -965 202q-20 0 -43 -68l-24 -12l-6 7h-13l-55 -7q-8 10 -227 37q0 9 -62 25q-118 -178 -190 -178
q-145 -80 -216 -80l-18 12q0 29 239 148q155 107 155 159l-19 62q60 239 184 239q309 -196 375 -196q84 -63 578 -141q193 -46 848 -80l31 5l80 -5h110l36 5l19 -5q633 33 633 49l19 -7q875 99 1050 172q99 0 559 190q78 39 197 130h25l13 -12v-56q0 -24 121 -37
q321 48 511 148v7q0 23 -290 73h-67q-115 0 -196 -61h-25q0 113 172 214zM548 383v-25q28 -53 215 -67l19 6q0 52 -147 148h-6q-81 -32 -81 -62zM6251 451q20 -6 25 -25q0 -57 -148 -98q-190 -86 -387 -154h-12v13h-7q0 82 155 110zM5330 297h5q52 0 111 -98v-6
q0 -26 -73 -104q-104 66 -123 66l-87 -98q-129 54 -129 87q0 54 87 116q90 -55 111 -55h11zM1108 45l18 -6v-12q0 -68 -185 -111q0 -12 -342 -128h-7v23q0 66 264 136z" />
    <glyph glyph-name="uniFB65" unicode="&#xfb65;" horiz-adv-x="7877" arabic-form="medial" 
 />
    <glyph glyph-name="uniFB66" unicode="&#xfb66;" horiz-adv-x="7063" arabic-form="isolated" 
d="M5821 1269q9.32275 9.17725 24 13q231 -30 252 -74q0 -50 -116 -123l-179 -55q-37 12 -37 24v6q0 28 147 68l50 30q0 27 -123 37h-30q-21 0 -123 -62v25q61 111 135 111zM6251 578q10.0234 -7.97675 12 -24h7q-19 -50 -19 -93q57 -36 98 -36h37q39 17 98 165l38 31h11
l7 -31l-7 -42q73 -50 142 -50h61l31 7v12q-14 176 -196 381q-63 0 -111 117q7 166 42 166q326 -332 326 -645q0 -198 -123 -198h-12q-30 0 -209 75h-12q-12 0 -104 -124l-49 -12q-79 0 -160 61q-189 -92 -277 -92q-117 0 -172 135h-13l-404 -104q-423 -92 -891 -153h-25
q-305 -56 -1099 -105q-312 -30 -966 -30h-31l-6 -7l-18 7q-644 0 -1193 123q0 14 -159 36q-32 -86 -55 -86q-141 18 -295 55q-98 -176 -308 -252l-141 -31l-6 7v18q200 102 388 271l11 25l-11 42q0 205 152 270l57 12q43 0 190 -134q311 -130 498 -135q0 -34 878 -75h117
l6 7l5 -7l216 7h265l424 31l23 -7q892 69 1273 130q323 37 547 85q467 86 645 173q31 -8 31 -18v-19q-25 -34 -25 -61q0 -36 110 -56h38q169 0 258 111q10 41 49 67h6zM567 326v-24q95 -56 148 -56h48q-63 148 -116 148q-39 0 -80 -68zM6632 204q12 0 91 -80v-7
q0 -55 -85 -116q-92 58 -92 92q38 97 86 111zM6932 -74h6l19 -24q0 -61 -179 -98q-231 -92 -386 -136h-7l-11 13q0 74 98 92zM1102 -48l6 -18q0 -54 -147 -111l-302 -142h-19v7q0 85 62 85l375 172zM6560 1858h7q29 0 29 -87v-63q0 -130 -179 -166l-57 7q-67 -63 -136 -63
h-8q-93 6 -93 92q14 107 43 107h14q0 -93 65.5 -93t99.5 50v50q0 86 44 115q22 -7 22 -42v-88l27 -27h29q64 11 64 42l-6 108q0 37 35 58z" />
    <glyph glyph-name="uniFB67" unicode="&#xfb67;" horiz-adv-x="1965" arabic-form="final" 
d="M1913 1532q-2 -42 -26 -101q-41 -23 -232 -137l-122 -84q-74 -51 -128 -56q-24 24 -24 35q0 55 215 185l271 158h46zM1831.5 1016.5q41.5 -34.5 41.5 -66.5t-27 -69t-56 -45l-101 52q-41 -24 -67 -57q-13 -15 -51 -15t-72.5 25.5t-34.5 56t29.5 71.5t56.5 41
q10 0 44.5 -20t47 -20t58 40.5t55.5 40.5q35 0 76.5 -34.5zM1925 134q0 -34 -24.5 -109.5t-49.5 -95.5q-2 -1 -100.5 -33t-179.5 -32q-166 0 -227 114q-31 59 -52 232l-58 477q-6 52 -26.5 185.5t-20.5 166.5t32 84h45q26 0 31 -56l47 -452q29 -270 72 -449
q32 -129 177.5 -129t230.5 58v49q-1 1 -6 17q-4 9 -20 9q-2 0 -33.5 -25t-83.5 -25q-165 0 -165 189q0 83 44 166.5t115.5 83.5t143.5 -90q108 -137 108 -335zM941 1380q0 -65 -244 -214q-185 -113 -275 -149q-14 14 -14 51t24 56q85 63 451 282h45q13 -2 13 -26zM981 95
q2 -17 -2.5 -58t-4.5 -50q-1 -119 -163.5 -221t-298.5 -102t-248 86.5t-112 236.5q0 74 40.5 168t95.5 143h36q0 -1 6 -14.5t6 -26.5t-35.5 -97.5t-35.5 -100.5q0 -108 110 -172q85 -48 174 -48t212.5 54.5t127.5 139.5l-152 896q11 84 62 190h37l26 -90q17 -54 78 -86
q-15 -68 -40 -193zM1730 319q-44 66 -78 66q-25 -23 -25 -47q44 -45 61 -45t42 26z" />
    <glyph glyph-name="uniFB68" unicode="&#xfb68;" horiz-adv-x="3383" arabic-form="initial" 
d="M283 297.5q0 -38.5 -33.5 -60.5t-72 -22t-60 32.5t-21.5 71t32.5 60.5t71.5 22t61 -32.5t22 -71zM199.5 -18q39.5 0 61.5 -32.5t22 -71t-33.5 -60.5t-72 -22t-60 32.5t-21.5 72t32 60.5t71.5 21zM1462 1504q-7 -21 -24 -68l-404 -263h-34q-13 13 -13 30q0 47 182 161
l225 140h68zM1485 -75q0 -179 -267 -305q-212 -100 -363 -100t-262 70q-140 89 -140 240t124 326h38v-46q0 -10 -30.5 -85t-30.5 -95q0 -133 119 -197q92 -51 235 -51q246 0 435 147q-26 49 -151 67t-142 42q17 85 140 138.5t123 140.5q0 37 -24.5 260t-50.5 362
q-3 17 -30 72.5t-27 73.5q0 58 84 182h36l14 -110q9 -64 79 -83q-35 -102 -51 -181l70 -524q-11 -96 -60 -217q32 -10 89 -41q43 -33 43 -86zM3222 1480q0 -79 -256 -200q-23 -11 -172 -107h-36q0 3 -5.5 12.5t-5.5 22.5q0 54 225 178l236 130q14 -15 14 -36zM2994 848
l86 -20q13 0 49.5 20t50.5 20t63.5 -31t49.5 -55.5t-35 -60t-53.5 -35.5t-49.5 15.5t-43.5 15.5t-54 -30t-57.5 -30t-59 37t-43 57t38.5 58.5t57.5 38.5zM2676 1379q0 -27 -109 -92l-359 -206q-13 0 -25.5 13.5t-12.5 26.5q0 51 149 134l158 80l153 99h46v-55zM1567 959
q-1 11 -1 22q0 52 59 139q38 0 43 -35q0 -37 6 -111q69 -363 80 -611q7 -177 114.5 -245t375.5 -68t402 67q-20 52 -109 54q-13 14 -13 30q0 76 93 125q71 37 133.5 37t166 -44t103.5 -108q0 -35 -61 -116q4 -7 17 -24q54 -21 99 -21t116 17.5t93 38.5v15q0 64 -91.5 144.5
t-91.5 107t19.5 69t40.5 42.5q56 0 129.5 -93.5t79.5 -132.5q0 -2 6.5 -29t6.5 -42q0 -163 -122 -244q-102 -65 -256 -65q-58 0 -144.5 56t-95.5 56t-74 -26t-90 -33q-154 -43 -375 -43t-243 2q-170.156 8.02621 -223.578 93.0131q-53.4221 84.9869 -57.4221 86.9869
l-35 156q-21 93 -21 157q0 143 -79 576zM800.5 671.5q-49.5 108.5 -91.5 131.5l-52 -113l43.5 -69.5t42 -80t34 -93.5l27.5 -95q17 17 31.5 63t14.5 97t-49.5 159.5z" />
    <glyph glyph-name="uniFB69" unicode="&#xfb69;" horiz-adv-x="1441" arabic-form="medial" 
d="M1204 -902q26 -22 26 -44.5t-47 -22.5q-89 0 -284 190q-258 253 -372 599q-94 -6 -170.5 26.5t-76.5 53.5q0 6 70.5 85.5t97.5 166.5q-75 -10 -165 -110l-74 -82q-24 18 -37.5 31.5t-25.5 47.5q-108 4 -137 45q2 23 25 59.5t55 50.5q-10 48 12 91q48 -5 142 5.5t124 32.5
q-30 22 -124 33.5t-142 6.5q-22 43 -12 91q-32 14 -55 50.5t-25 59.5q29 41 137 45q16 47 63 79l74 -82q90 -100 165 -110q-27 87 -97.5 166.5t-70.5 86.5q0 20 76.5 53t170.5 26q114 347 372 599q195 190 284 190q47 0 47 -22.5t-26 -43.5q-151 -131 -269.5 -342
t-157.5 -411q113 -23 113 -49q0 -7 -70 -86.5t-97 -166.5q75 10 166 110l73 82q24 -17 37.5 -31t25.5 -48q108 -4 137 -45q-2 -23 -25.5 -59.5t-55.5 -50.5q11 -48 -10 -91q-49 5 -143 -5.5t-124 -32.5q30 -22 124 -33.5t143 -6.5q21 -43 10 -91q32 -14 55.5 -50.5
t25.5 -59.5q-29 -41 -137 -45q-17 -47 -63 -79l-73 82q-91 100 -166 110q27 -87 97 -166.5t70 -85.5q0 -26 -113 -49q39 -200 157.5 -411.5t269.5 -341.5zM506 530q26 16 79 16t80 -16l41.5 83t47.5 70l55 54q0 17 -91 22q37 251 152 451.5t260 333.5q-399 -261 -566 -773
q-23 9 -62 9t-89.5 -17t-50.5 -26l54 -54q30 -29 90 -153zM1099 541q-14 31 -101 12q-10 34 -33 54l-75 -75q-17 -16 -65 -47.5t-62 -33.5q33 -40 36 -82q104 37 236 41q8 23 -5 70q18 1 41.5 24.5t27.5 36.5zM1099 107q-4 13 -27.5 36.5t-41.5 24.5q13 47 5 70
q-132 4 -236 41q-3 -42 -36 -82q14 -2 62 -33.5t65 -47.5l75 -75q23 20 33 54q87 -19 101 12zM697 211.5q47 44.5 47 112.5t-47 112.5t-111.5 44.5t-111 -44.5t-46.5 -112.5t46.5 -112.5t111 -44.5t111.5 44.5zM409 451q-15 2 -63.5 33.5t-65.5 47.5l-74 75q-23 -20 -33 -54
q-88 19 -100 -12q2 -13 26.5 -36.5t41.5 -24.5q-12 -47 -5 -70q133 -4 236 -41q2 42 37 82zM409 197q-35 40 -37 82q-103 -37 -236 -41q-7 -23 5 -70q-17 -1 -41.5 -24.5t-26.5 -36.5q12 -31 100 -12q10 -34 33 -54l74 75q17 16 65.5 47.5t63.5 33.5zM665 118
q-27 -16 -80 -16t-79 16l-42 -83t-48 -70l-54 -54q0 -9 50.5 -25.5t89.5 -16.5t62 9q167 -512 566 -774q-145 134 -260 334t-152 451q91 6 91 22l-55 54q-28 30 -89 153z" />
    <glyph glyph-name="uniFB6A" unicode="&#xfb6a;" horiz-adv-x="1463" arabic-form="isolated" 
d="M1438 84q-28 -41 -136 -45q-17 -46 -63 -78l-74 82q-90 100 -166 109q27 -87 97.5 -166.5t70.5 -84.5q0 -21 -76 -53.5t-170 -26.5q-115 -346 -373 -599q-194 -190 -283 -190q-48 0 -48 22.5t26 44.5q151 130 270 341.5t157 410.5q-113 23 -113 50q0 5 70.5 84.5
t97.5 166.5q-75 -9 -166 -109l-73 -82q-25 17 -38 31t-25 47q-109 4 -137 45q1 24 24.5 60t55.5 50q-11 49 11 92q49 -5 142.5 6.5t123.5 32.5q-30 22 -123.5 32.5t-142.5 5.5q-22 43 -11 92q-32 14 -55.5 50t-24.5 60q28 40 137 44q16 47 63 79l73 -82q91 -100 166 -110
q-27 88 -97.5 167.5t-70.5 85.5q0 27 113 50q-38 199 -157 410t-270 342q-26 21 -26 43.5t48 22.5q89 0 283 -190q258 -252 373 -599q94 7 170 -26t76 -53q0 -6 -70.5 -85.5t-97.5 -167.5q76 10 166 110l74 82q23 -17 36.5 -31t26.5 -48q108 -4 136 -44q-1 -24 -24.5 -60
t-55.5 -50q11 -49 -11 -92q-49 5 -142.5 -6.5t-124.5 -32.5q31 -23 124.5 -33t142.5 -5q22 -43 11 -92q32 -14 55.5 -50t24.5 -60zM862 546q53 0 79 -16l42.5 83.5t47.5 69.5l54 55q0 8 -50 25.5t-89.5 17.5t-61.5 -9q-167 511 -566 772q145 -133 259.5 -333.5t152.5 -451.5
q-92 -5 -92 -21l55 -55q29 -28 89 -153q27 16 80 16zM1375 541q-13 31 -100 12q-10 34 -33 55l-75 -75q-17 -17 -65.5 -48t-62.5 -34q34 -39 37 -81q103 37 235 40q8 23 -4 70q17 2 41 25t27 36zM1375 108q-3 12 -27 35.5t-41 25.5q12 46 4 70q-132 3 -235 40
q-3 -42 -37 -82q14 -2 62.5 -33t65.5 -48l75 -75q23 20 33 55q87 -19 100 12zM973 212q47 45 47 112.5t-47 112.5t-111.5 45t-111 -45t-46.5 -112.5t46.5 -112.5t111 -45t111.5 45zM685 451q-15 3 -63 34t-65 48l-75 75q-23 -21 -32 -55q-88 19 -101 -12q3 -13 27 -36
t42 -25q-13 -47 -5 -70q132 -3 236 -40q2 42 36 81zM685 197q-34 40 -36 82q-104 -37 -236 -40q-8 -24 5 -70q-18 -2 -42 -25.5t-27 -35.5q13 -31 101 -12q9 -35 32 -55l75 75q17 17 65 48t63 33zM862 103q-53 0 -80 16l-41 -83.5t-48 -69.5l-55 -55q0 -15 92 -21
q-38 -251 -152.5 -451t-259.5 -334q399 261 566 773q22 -9 61.5 -9t89.5 17t50 25l-54 55q-29 29 -90 153q-26 -16 -79 -16z" />
    <glyph glyph-name="uniFB6B" unicode="&#xfb6b;" horiz-adv-x="5346" arabic-form="final" 
d="M598 550q125.8 -51 182 -51q14 0 21 3q-62.2657 40.028 -152 155l-22 -33q-24 -45 -29 -74zM5190 78l-89 -160l-138 113l86 164zM1178 17q-4 -40 -32 -84.5l-54 -86.5q-148 -100 -306.5 -167t-318.5 -114l127 192q105 39 301.5 124t282.5 136zM5414 -84q-4 -42 -43 -109
q-16 -22 -39 -60q-148 -108 -351 -190q-114 -43 -277 -91l130 189q93 32 295.5 122t284.5 139zM4682 1718q0 -174 -379 -287q-15 15 -27 15v55q129 51 212 139q-58 36 -111 36q-76 0 -153 -93l-44 -36v90q0 33 82.5 116.5t113.5 88.5q47 5 84.5 5t118.5 -29
q103 -43 103 -100zM4802 411q-51 -52 -129.919 -52t-121.081 65q-31 -56 -97 -87t-109 -31t-50 1q-61 0 -98.5 23t-91.5 88q-75 -54 -131 -79t-114 -46v-1h-5q-429 -100 -1009 -105l-961 -19l-318 19q-16 0 -153 29l-181 38v4q-214.35 71.45 -268 114q-19 -50 -32.5 -75
t-28.5 -36q-26.6667 -15 -46 -15q-79.44 0 -234 69l-36 -74q-44 -81 -81.5 -123q-67.221 -75.2876 -194.5 -110q-31.5 -7 -106.75 -7q-135.5 0 -193.25 7q51 23 170.5 91.5t199.5 125.5q115 76 128 115q-24.3818 56.8909 -25.1909 118.445
q-0.809082 61.5546 11.6909 114.055q37.079 155.732 106.5 223.5q39 34 92 48q40 -58 130 -132q27 -27 79 -65q25 -27 120 -67t150 -59.5t59 -21.5v2l184 -30q491 -61 643 -61l702 18q510 0 940 65q45 6 153 39v2l89 37q75 36 145 83.5t119 108.5q18 -15 19 -46t-19 -91
q14 -17 22 -33l11 -22l44 -22q38 -17 74 -17q207.438 0 292 231q24 -7 26 -33t4 -47l-6 -66q0 -26 21 -37q109 0 150.5 120t61.5 116q15 -3 15 -32l-6 -62q0 -23 13.5 -39t48 -26.5t69 -17t45.5 -6.5q83 0 83 94q7.86182 62.8945 -42.0693 156.947l-93.9307 184.053
q-93.7734 6.69812 -130 55q-59 97 -59 227.5t62 206.5q152.969 -118.296 261 -354q98 -230.708 98 -407.854q0 -177.146 -59.5 -277.146t-157.5 -100q-67 0 -101 17t-103 63q-17 -51 -49 -87z" />
    <glyph glyph-name="uniFB6C" unicode="&#xfb6c;" horiz-adv-x="2237" arabic-form="initial" 
d="M786 995q17.9875 -51.7142 20 -98l-133.5 -68.5t-151 -89t-118.5 -108.5q-85.2604 -126.984 -98 -238q17 -29 42 -36q28 -3 53 -7q50 -20 90 -20q60.8571 0 165 27q36 12 67 29q61 42 107 109l16 25q10.3448 -80.6898 37.1724 -137.845t81.8276 -87.6551t122.5 -30.5
q138.379 0 245.5 109q32 39 48 73.5t34 92.5q28 -36 77 -75t117.5 -66t114.5 -27q69 0 89 5q73 109 88 284q2 40 2 94.5t-83.5 224.5t-119 259l-70.5 182l-80 -253q24 -48 52 -113l58.5 -137q30.5 -72 63 -137.5l64.5 -131.5q-8.33337 -5 -49.6667 -5
q-190.092 0 -258.333 177l-49 175q-54 187 -86 351l-77 -257q50.5714 -151.714 61.2856 -221.857l15.7144 -104.643q5 -34.5 5 -62q0 -64.0883 -32.5 -101.794t-80.5 -66.2059t-111.5 -28.5t-103.5 36q-30 31 -46 87q-14 35 -24.5 89t-10.5 119.5t-17.5 154.5l-35.5 179z
M815 748q8 -18 19 -117q-58.1087 -81 -242 -81q-22 0 -32.5 1l-20.5 2q24 43 104 103.5t172 91.5zM2149 474q53 55 85.5 147.5t32.5 146.8t-18 140.7l-200 1055l-95 -338l141 -729q54 -304.56 54 -423zM1453 2302l-188 -92.5l-224 -101.5t-201 -84l-118 -149q139 22 306 98
t343 196q75.3462 90.4155 82 133zM786 155q-204 -104 -428 -200q-125 -59 -183 -77l-120 -143q284.799 37.1477 655 291l38 44q38 54 38 85zM1206 1555q34.2858 -45.0001 95.6428 -45q61.3572 0 98.8572 66.5t37.5 131.5t-9.5 75t-32.5 44.5t-25 36.5q-11 0 -28.5 -46.5
t-25.5 -53.5q38 -61.3846 38 -82.1924q0 -20.8076 -12.5 -33.3076t-49.5 -12.5t-56.5 26t-34 84t-18.5 58q-6 -13 -18.5 -25.5t-12.5 -22.5v-15l1 -22.5v-14.5q0 -103 -53.5 -103t-75.5 16q-10 12 -17 32.5t-9 50t-14.5 37t-28 -24.5t-15.5 -84t12 -73
q41.5095 -100 112 -100q6 0 14 2q63 0 92 32q1 2 35 66zM2355 2281q34 86.8889 34 136.944q0 50.0557 -35.5 75.5557t-69.5 25.5q-60 0 -117 -56.5t-100 -133.5q-15 -9 -32 -9t-44 13.5t-39 13.5t-18 -5q-66 -13 -117.5 -89t-51.5 -122l89 63q45 26 92 26q25 -17 53 -34
q29.1831 -17.7183 82 -23h24q86 0 156 42q64 34 94 76zM2177 2348q43 46 78 46t35 -31q0 -22.04 -48 -47q-43.75 -14 -68.375 -14h-28.125q-3.5 0 -6.5 3q23 31 38 43z" />
    <glyph glyph-name="uniFB6D" unicode="&#xfb6d;" horiz-adv-x="5025" arabic-form="medial" 
d="M3408 1982q-42 49 -120.5 73t-154 24t-127.5 -45q-51 -39 -82 -140q24 0 58 14t47 17t50 3t83 -10.5t50 -18.5q0 -25 -90.5 -81.5t-90.5 -67.5q10 -2 20.5 -2h25.5q70 0 109 13q83 25 131.5 75t90.5 146zM2738 1595q-58 144 -108 173l-59 -151q54.0164 -89.2444 101 -193
q21 -58 38.5 -127l31.5 -125q19 21 36.5 83t17.5 129t-58 211zM2188 1463l-95 -178l156 -123l103 173zM3162 746q-18 0 -86.5 22.5t-80.5 46.5q0 11 23.5 30.5t53.5 20t51.5 -36.5t38.5 -83zM4844 503q50 56 82 152t32 142.091q0 46.0909 -23 156.909l-178 1087l-91 -350
l130 -751l26 -191q22 -179 22 -246zM4002 582q0 -110.238 88 -171q-36 -107 -111 -217.5t-159.5 -161.5t-140.5 -67t-98 -16h-54q-66.5 0 -155 59q-57 41 -102 115q-15 29 -55 116q0 -62 3.5 -95t21.5 -74q8 -28 22 -53q14 -16 46 -60q116.26 -138.696 326 -162
q113 0 170.5 18.5t104.5 52.5q64 41 124 114q71 80 121 227t57 212q49 6 77 13q89 22 135 83.5t64.5 154t18.5 196.5l-8 89l-95.5 561q-28.5 175 -35.5 211l38 13q43 93.8182 43 149q-2 1 -56 39.5t-73 74.5q-31 58.7368 -31 188q-56 -7 -91 -71t-35 -133.5
q0 -158.667 44 -171.5l171 -968l7.5 -54q3.5 -26 3.5 -50t-11 -37q-21 -31 -76.5 -49.5t-97 -18.5t-84.5 22t-54 74q-3 8 -7 8q-11 0 -29 -45t-21.5 -66.5q-5.5 -33.7857 -5.5 -48.5zM2679 -127q-133 -73 -227 -117q-118 -60 -167 -78l-110 -155q126 17 286 103
q154 78 314 199l35 50q35 56 40 85zM4075 2651l-398 -210q-118 -58 -167 -76l-110 -152q124 18 279.5 97.5t320.5 203.5q23 29 47.5 66t27.5 71zM2910 2356l-332 -183q-98 -50 -145 -68l-110 -151q143 46 258.5 101.5t256.5 163.5q66.012 86.1025 72 137zM4686 2448h-12
q-58 -14 -108 -94.5t-50 -127.5l62 51q55 45 103 45q7 0 40 -26t76 -30q95 0 164.5 37t101.5 80q30 86 30 125.5q0 74.2144 -36 96.5q-26 21 -69.5 21t-97.5 -58.5t-93 -134.5q-14 -7 -31 -7zM4864 2405q19 31 30 47q41 49 61.5 49t34 -9.5t13.5 -21t-10 -23
q-25.2544 -29.0425 -100 -41.5q-13 -1 -29 -1zM3769 1800q18.2856 -47.9998 78.6428 -47.9999t95.8572 67.4999t35.5 115q0 90.5 -7 98.5q-18.375 21 -54 81q-14 0 -31.5 -50t-17.5 -54t16 -39t16 -50t-12 -28t-31.5 -13t-39 10.5t-29 28t-25 74.5t-22.5 57
q-4 -9 -13.5 -20.5t-9.5 -29.5l2 -29.5v-12.5q0 -114 -53 -114q-48 0 -65 16t-21 34t-6 49t-14 39t-20 -15q-17 -36 -17 -92t7 -75q25 -59 53.5 -82t74 -23t71.5 35q18 35 38 70zM2532 449l-10 -67q-120.129 -256.013 -811 -470q-312 -99 -772 -148t-723 -49
q-405 0 -906 158q-281 83 -496 204t-309 239q-27 38 -62.5 59t-58.5 21q-45 0 -45 -35q0 -18 13 -45q83 -122 173 -205.5t198 -153.5l230 -135q279 -154 636 -232.5t647 -78.5t474 19q565 24 810 89.5t443 147t316.5 166t175 130.5t101 108t67.5 128q37.5461 107.741 41 182
q60 0 91 9t55 39q30.2744 28.4936 53 107q33 -38 125.5 -83t142.5 -45t81 37q7 9 31.5 58.5q35.5 71.7245 35.5 140.112t-19.5 129.388t-51.5 93q232.036 73 568 73q240.5 -37 321 -37l89 184q-85 0 -211 42t-265 103.5t-239 113t-144.5 69t-106 17.5t-101.5 -18
q-59 -22 -139 -111q-16 -43 -32.5 -83t-16.5 -60.5t1 -37.5q54.8572 36 151.429 36q186.281 0 337.571 -67l-92 -22q-107 -32 -167 -60q-102.55 -30.9586 -177 -93q-16 -13 -115 -206q-35 -67 -95 -83q-35 -20 -85.5 -20t-71.5 20q-7 34 -37.5 69t-75.5 79l-72 -238
q40 -37 66.5 -85t28 -69.5t4.5 -32.5z" />
    <glyph glyph-name="uniFB6E" unicode="&#xfb6e;" horiz-adv-x="4763" arabic-form="isolated" 
d="M4567 2310l79 -19q17 0 31 4q40 77 96.5 132t119.5 55q33 0 58 -17q46 -31.28 46 -84q0 -50.5 -35 -128q-35 -40 -110 -77t-175 -37q-47 6 -82.5 29.5l-35.5 23.5q-59 0 -105 -30.5l-79 -52.5q6 46 51 108q62.3779 92.9998 141 93zM4751 941q15 -93.75 15 -141.875
t-30.5 -137.625t-86.5 -141.5q0 84.7727 -53 410l-138 707l94 328zM3639 1442q46 0 46 38q0 16 -14.5 49.5t-14.5 40t16.5 51t30.5 44.5q8 -6 27.5 -39.5t29.5 -40t10 -72t-35 -121.5q-41 -70 -103.5 -70t-91.5 41q-17 -29 -38 -60q-30 -31 -91 -31h-27.5
q-52.1416 0 -98.5 91q-8 17 -8 61.5t12.5 84t30.5 33.5q13 -8 13.5 -31t0.5 -41q14 -33 24 -43q25 -17 78 -17t53 99v25q0 31 10 45.5t12 28.5q10 0 29.5 -65t25.5 -74t28.5 -18t44.5 -9zM3860 532q-93 69.2093 -93 163q0 43.4865 23.5 98.7433q23.5 55.2567 34.5 55.2567
q4 0 9 -8q12 -46 58 -67t90.5 -21t104.5 17t82 43q13 10 13 35t-4.5 48.5t-8.5 48.5l-134 809q-47 8.10339 -47 154q0 71 35.5 131.5t92.5 69.5q0 -111.957 43 -183q18 -29 60 -55.5l77 -48.5q0 -42 -35 -113q-6 -19 -13 -26q-7 -3 -19.5 -5.5t-24.5 -7.5l96 -624l11 -83
q-8 -111 -22 -168q-21 -106 -71 -164q-66.9795 -70.9983 -226 -86q-21 -71 -65.5 -167t-117.5 -170.5q-118.569 -121.005 -255 -163.5q-56 -14 -175 -14t-235.5 59t-146.5 113q145 -29 253 -29t167 17t141 61q98 45 173 121.5t129 159.5zM2720 251l-154 -166l-142 101
l-134 -133l-180 149l140 134l52 -38q55 -34 80 -47l138 125zM1241 200q-4 -35 -27.5 -69t-50.5 -62q-362.124 -243.497 -648 -287l121 145q53 17 167.5 69q355.252 163.318 437.5 204zM839 546q-59.985 31.9069 -178 159q-17 -21 -25 -37q-32 -44 -40 -70q44 -20 120 -36
t123 -16zM3558 641q-1 -34 -43 -87q-10 -15 -36 -46q-177 -114 -344.5 -189t-305.5 -94l118 143q66 21 215.5 88.5zM4900 2338q0 23 -42.2222 23t-106.778 -83q0 -1 4 -1h11q49.75 0 91.875 19t42.125 42zM2317 963l-134 -11q-16 0 -23 2q135 286 320 286
q74.25 0 209.625 -68.5q259.813 -131.466 356.375 -159.5q40 -15 114 -30.5l114 -23.5q212.8 -38 380 -38l-122 -199h-422q-31 0 -152 -48.5l-250 -100.5l-159.5 -67t-181.5 -37q-35 0 -60 8q-22 12 -42 15.5t-43 9.5t-46 20q-112 -71 -403 -125q-425 -53 -547 -30t-180 51
q-48.7742 -126 -135 -126q-59 0 -145.5 23t-142.5 46q-26 -51 -58 -103.5t-80.5 -97q-94.7871 -86.9696 -245.5 -108.5q-32.8571 -10 -124.929 -10q-108.405 0 -235.071 10q47 18 201 89t273.5 139t134.5 106q-32 46.5454 -32 114.273q0 67.7273 13.5 116.227t52.5 123.5
q26 62 79 105q49 35 113 51q211.084 -257.991 548 -328q139 -28 358 -21q164 18 268.5 51.5t158 58t117.5 60.5l124 72q7 -14 7 -32.875t-18 -66.125q32.1428 -25 98 -25h28t29 2q112 0 224.5 48l217.5 92q-120 68 -233 112.5t-259 44.5h-65zM3848 2045q-2 -42 -59 -106
q-12 -18 -50 -57q-245 -139 -476.5 -231t-420.5 -117l161 177q90 26 297.5 108z" />
    <glyph glyph-name="uniFB6F" unicode="&#xfb6f;" horiz-adv-x="4382" arabic-form="final" 
d="M4290 1315q0 -61 -192 -180l-285 -171l-162 -106q-106 -67 -159 -89q-14 14 -14 31q0 89 537 398l239 155q36 0 36 -38zM3041 1225q0 -62 -63 -100q-15 -9 -129 -72.5l-287 -163.5h-44q-23 14 -23 29q0 50 25 68l226 122q75 43 271 147q24 -14 24 -30zM3860 -154l-196 -6
q-28 0 -43 -34q-36 -78 -74 -115h-36v42q0 14 24.5 63.5t24.5 62.5q-14 0 -41 33.5t-32 56.5q-76 -67 -130.5 -94t-127.5 -27q-105 0 -186 80q-19 25 -75 128q-49 -81 -169.5 -129.5t-178.5 -48.5q-188 0 -188 105q0 42 53 112l114 -50q8 1 66 1q147 0 268 116
q0 58 -40 177.5t-40 154.5t19 87t23 69h36q24 -122 78 -359q41 -150 93.5 -221.5t133.5 -71.5q44 -1 78 16t68 36q14 8 47.5 58t68.5 50q11 0 36 -39.5q45.886 -72.4999 84.4429 -72.4999q38.5571 -7.05719e-05 220.057 148.5t287.5 148.5q44 0 114.5 -37t78.5 -66
q3 -9 4.5 -53.5t-46 -119t-125.5 -123.5q-128 -78 -292 -78zM2302 1270q0 -62 -64 -101q-14 -9 -127.5 -72l-288.5 -164h-43q-22 14 -22 30q0 50 24 68l497 268q24 -14 24 -29zM2179 887q44 -31 44 -60.5t-38 -63t-49.5 -33.5t-44.5 14.5t-43 14.5t-50.5 -34.5t-55.5 -34.5
q-40 0 -104 60q-4 10 25.5 69.5t57.5 59.5q14 0 47 -15t46 -15t49 34.5t54 34.5t62 -31zM2342 -8q0 -130 -123 -257q-146 -151 -611 -274q-153 -40 -330 -57.5t-406.5 -17.5t-520.5 57q-504.909 98.8997 -789 332q-29 24 -59 61t-54 61q-10 19 -10 31q0 25 27 25t46 -10
t19.5 -10t7.5 -9q64 -72 217 -147.5t379 -138.5q403 -109 721 -109q432.389 0 956 145q171 53 301 140t130 133.5t-2 57.5t-31 42q-20 -22 -59 -47q-52 -13 -71 -13q-75 0 -116 60q-27 40 -27 101.5t58 158t115 96.5q103 0 176 -183q56 -141 56 -228zM4174 112
q-85 43 -126 43t-105 -39q-12 -6 -151 -119q158 -6 278 32q79 25 104 83zM2148 167q-3 52 -59 77q-16 -3 -33 -21t-17 -24t16.5 -16.5t22.5 -16.5z" />
    <glyph glyph-name="uniFB70" unicode="&#xfb70;" horiz-adv-x="613" arabic-form="initial" 
d="M2492.5 1534.5q23.5 -23.5 23.5 -60.5t-27 -103q-31 -42 -88 -67t-111 -25h-18q-7 1 -25.5 2.5t-81.5 41.5q-38 0 -73 -20l-71 -50q0 36 41.5 96q49.8 72.0001 105.5 72q10 0 32 -9.5t35.5 -9.5t25.5 6q83 150 172 150q36 0 59.5 -23.5zM1781 1633q-3 -26 -23.5 -51.5
l-42.5 -53.5q-288 -196 -513 -230l94 116q36 13 148.5 63q241.373 109.088 336.5 156zM2392 230q14 -75 14 -117t-27 -113.5t-67 -112.5q0 108 -42 333l-125 670l74 265zM1514 1234l-2 16v6q0 13 10.5 25.5t13.5 19.5q6 -4 17.5 -48.5t20.5 -55.5q21 -29 59 -29t38 32
q0 16 -29 70q5 5 19.5 41.5t22.5 36.5q2 -1 19.5 -28.5t25.5 -35.5t8 -59.5t-29.5 -103t-77 -51.5t-76.5 34l-28 -51q-22 -24 -73 -24q-6 -2 -10 -2q-54 0 -90 77q-8 17 -8 57.5t12 66t21.5 19.5q14.5 -9.15784 14.5 -57q9 -28 21.5 -39t56 -11t43.5 82v12zM1126 1009
l-10 -56q-13 -13 -26.5 -13t-47 19.5t-45 19.5t-120 -88t-160.5 -119h-44q-12 1 -12 24q0 8 94.5 96.5t133.5 132.5q-8 10 -44 44t-36 70.5t48.5 116.5t100.5 80q62 0 77 -104l5 -117q9 -12 47.5 -43t38.5 -63zM1142 350q-3 42 -17 78l81 136l24 -120q18 -88 18 -163
t27 -144q26 -97 116 -97t157 80q23 27 23 60.5t-4 63q-18.8997 139.385 -61 257.5l61 201q24 -121 51.5 -220.5t52 -176.5t74.5 -115t136 -38q32 0 38 2l-45 89q-30 60 -75.5 165.5t-69.5 152.5l63 198q72 -187 144.5 -331.5t72.5 -190.5q0 -190.368 -71 -295q-16 -5 -61 -5
t-101.5 22.5t-92.5 50.5t-60 58q-28.9756 -86.9268 -66 -129q-78 -85 -209 -85q-147.823 0 -177 201q-5 -12 -12 -21q-38 -55 -85 -84q-19 -13 -53 -25q-17 -2 -60.5 -11t-72 -9t-68.5 16q-21 3 -41 4q-21 6 -34 30q10 94 77 186q32 45 90.5 84.5t125 73zM2395 1406
q39 18 39 39t-28.5 21t-50 -23t-39.5 -46q1 -2 3 -2h8q33 0 68 11zM948 1180q0 9 -12 27q-15 0 -15 -38q8 0 27 11zM1163 141q-3.6582 76.8223 -15 91q-74 -24 -136.5 -71t-80.5 -81q11 -2 40 -2q145 0 192 63z" />
    <glyph glyph-name="uniFB71" unicode="&#xfb71;" horiz-adv-x="3120" arabic-form="medial" 
d="M3757.5 1520q23.5 -23 23.5 -60.5t-27 -103.5q-30 -42 -87 -67t-111 -25h-18q-8 1 -26.5 2.5t-81.5 41.5q-36 0 -73 -19l-71 -51q0 36 42 96t93 71q4 2 13 2t31.5 -9.5t35.5 -9.5t25 5q83 150 172 150q36 0 59.5 -23zM2994 1267l-44 11v37q49 23 148 86q-35 24 -85 24
q-27 0 -107 -58h-36v32q0 36 77.5 86t104.5 50t111 -32.5t84 -72.5q0 -50 -107 -106.5t-146 -56.5zM3672 281q13 -67 13 -105t-24.5 -102.5t-60.5 -100.5q0 96 -38 299l-113 604l67 238zM2922 1163q0 -46 -481 -280h-62v66l488 269h55v-55zM2306 786.5q44 -36.5 44 -60.5
t-31.5 -62.5t-62.5 -38.5t-63 29.5t-32 60t22.5 69.5t50.5 39t72 -36.5zM3323 219q3 -14 -5 -57q-26 -69 -68 -159q-53 -71 -163 -71t-165 44q-20 22 -71 67q-37 -28 -66 -40q-201 -107 -437.5 -107t-348 -11.5t-237 -11.5t-197.5 30t-126 97q-112 -99 -252 -99h-32
q-130 11 -188 60q-38 0 -60 -39.5t-47.5 -39.5t-105 30t-95.5 30t-64 -54.5q-112.07 -127.246 -201 -151.5q-223 -62 -294 -62q-11 0 -24 6.5t-15 6.5l378 220q133 79 133 128q-9.10345 81.9311 -3.05176 114.966q6.05176 33.0345 72.5518 110.534t117.5 77.5q6 0 37 -47.5
t56 -73t95 -89.5q59 -42 98 -55.5t95.5 -13.5t92.5 3.5t80 30t78 79.5t46 66q45 -5 45 -51q0 -13 -3 -35.5t-2 -32.5q23 -41 91 -58q20 -4 42.5 -12.5t50.5 -8.5t74 40.5t95 95.5q14 23 14 92l-99 858q0 89 63 172h34q8 -33 25.5 -98.5t73.5 -59.5q3 -17 3 -46.5t-35 -86.5
t-35 -73.5t20.5 -206.5t43.5 -476l146 109q54 36 133.5 36t160.5 -43t81 -120q0 -35 -49.5 -105t-59.5 -92q-3 2 51.5 2t176 32t167.5 65q-26 40 -65.5 44.5t-88.5 9.5q-1 95 103 153q80 45 156.5 45t139.5 -30q85 -40 85 -105.5t-70 -127.5q16 -21 45 -28q31 -12 60 -12
q89 0 114 50q-30 167 -98 652q-3 23 -29 94t-26 102t25.5 101t57.5 95q43 -27 48 -89.5t12 -78t45.5 -35t47.5 -27.5q-1 -17 -78 -193zM2215 -312q0 -52 -43 -71l-426 -181h-33q-13 13 -13 40q0 43 199 132l261 116h42q13 -14 13 -36zM601 639l-44 11v36q50 23 148 87
q-35 25 -73.5 25t-119.5 -59h-35v33q0 37 77.5 86t104.5 49t111 -32.5t84 -71.5q0 -52 -107 -108t-146 -56zM1325 -302.5q52 -40.5 52 -72.5t-42.5 -59t-58.5 -27t-52.5 20t-46 20t-53 -34.5t-55.5 -34.5q-44 0 -86 39.5t-42 68.5t28 59.5t50.5 30.5t65 -25t53 -25t51.5 40
t54 40q30 0 82 -40.5zM3661 1390q38 19 38 40.5t-28 21.5t-50 -23t-40 -48q1 -1 3 -1h9q32 0 68 10zM2310 184q-54 54 -168 54q-63 0 -140 -65l-158 -131h63q26 0 129.5 23t165 45t108.5 74zM793 81q-34 68 -84 117q-14 -24 -34 -53q30 -44 118 -64z" />
    <glyph glyph-name="uniFB72" unicode="&#xfb72;" horiz-adv-x="2137" arabic-form="isolated" 
d="M2084 1248q12 -10 12 -36t-32 -50t-158.5 -89t-228.5 -109q0 1 -5 9t-5 17q0 45 35 65q155 94 382 193zM1934 868l136 7q0 -44 -19 -54q-111 -49 -204 -95h-27q-1 20 -4 56q-30 35 -30 60.5t53 89t91 63.5q55 0 55 -59q0 -18 -12.5 -35t-29.5 -17t-49 16l-12 -13
q19 -19 52 -19zM1942 749q16 -7 27 -55t53.5 -338t42.5 -364.5t-6 -97t-36 -64.5q-7 -1 -17 12.5t-12 22.5l-104 757q0 33 14 78.5t38 48.5zM1271 801q-10 21 -36.5 46t-26.5 55.5t41.5 93t83.5 62.5t51 -21t8.35596 -72.8431q-0.643921 -51.8431 4 -65
q4.64404 -13.1569 38.644 -42.6569t34 -50t-17 -57.5h-33q-9 0 -28.5 16t-28.5 16q5 0 -119 -104t-215 -126q-11 2 -11 19t82.5 86.5zM499.5 906.5q25.5 -38.5 25.5 -57t-28 -45.5q-3 2 -27.5 21.5t-34.5 19.5t-62.5 -52t-72.5 -65q-78 -54 -176 -82l-36 11q142 113 262 223
q-40 28 -48 42t-8 53.5t37.5 92.5t77.5 53t65 -49q6 -14 0 -55t-3 -56.5t28.5 -54zM969 -154l-40 -9q-60 0 -109 36.5t-49 98t46 141.5t109 80q39 0 99 -102.5t95 -102.5q52 0 109 38q3 10 -4 28.5t-7 51.5q0 100 69.5 200.5t153.5 100.5q37 0 120 -39.5t83 -86.5
q0 -12 -19 -32q-112 39 -132.5 39t-121.5 -34q-27 -9 -61 -41q-1 -6 -1 -11q0 -53 46 -94t89.5 -41t171 42.5t142.5 51.5h27q9 -9 9 -24t-18 -54t-32 -45q-113 -61 -222 -90l-262 -69l-74 -6q-56 -5 -74.5 -22t-29.5 -48.5q-27.8528 -79.7603 -102.926 -165.63
t-144.074 -105.37t-153.5 -19.5t-192.5 18q-47 8 -74 49q23 28 42 28l140 -15q207 0 397 227q4 27 -25 27zM397 527.5q0 -29.5 -19.5 -54.5t-51.5 -25t-63.5 20t-31.5 48t21 59t49.5 31t62 -24.5t33.5 -54zM552 184q44 -83 44 -171.5t-35 -134.5q-27 -32 -119 -52t-156 -20
q-87 0 -87 68q0 40 27 82q34 -8 73 -8t121.5 20t96.5 33q5 39 -58 100.5t-124 93.5q0 126 47 126q31 0 94 -55.5t76 -81.5zM1334 926q-15 28 -38 28l9 -38q4 0 14.5 5t14.5 5zM945 -11q-8 18 -34 54h-26q-18 -18 -18 -30q2 -1 16 -12.5t28 -11.5h34zM398 985q-15 28 -39 28
l9 -37q4 0 15 4.5t15 4.5z" />
    <glyph glyph-name="uniFB73" unicode="&#xfb73;" horiz-adv-x="2113" arabic-form="final" 
d="M1613 1038l-94 20q-10 0 -41.5 -22.5t-45.5 -26.5q-1 4 -1 21t30 61t56 62q26 2 68 14q17 13 81.5 99.5t108.5 86.5t69 -36.5t25 -60.5q0 -92 -93.5 -155t-162.5 -63zM1858 -17l172 19q6 7 6 20q0 39 -45 100l-60 81q-3 12 -3 36q0 80 50 80t93.5 -101.5t43.5 -135.5
q0 -75 -44 -185q-5 -5 -37 -29q-142 -32 -189 -32q-168 0 -191 142q-131 805 -131 858q0 5 33 132q40 -5 64.5 -168.5l77.5 -505.5l6 -125.5q4 -83.5 43 -134.5t111 -51zM1251 1294q0 -63.6897 -578 -263q-8 0 -34 16q8 19 24.5 51.5t37.5 44.5q115 57 296 124t204 67
q50 0 50 -40zM905 887l26 -17q47 17 51 69.5t27 68.5q12 -9 36.5 -43.5t42.5 -34.5t34 16q-2 20 -2 51.5t26 51.5q10 -3 24 -5q21 -36 21 -71q0 -80 -59 -124q-26 -20 -121 -58.5t-117.5 -38.5t-66.5 42q-4 42 12 93t48 72q18 -23 18 -72zM2066 -344q-7 -117 -64 -117
q-38 0 -122 63q-2 28 23 71.5t62 43.5t101 -61zM2250 -451q14 -2 14 -27t-40 -59.5t-84.5 -49t-118 -45t-296.5 -114.5l-25 24q7 31 34 70zM1332 413q18.2927 -73.1709 71.6464 -199.085t53.3536 -196.915t-34 -136t-99 -65q-93 0 -151 27t-115 101q-98 -178 -266 -178
q-9 0 -65.5 30t-64.5 42q-15 43 -50 126q-31 -27 -104 -76q-27 -13 -105 -13t-207 21q0 2 -5.5 12t-5.5 22q0 103 199 237l212 139q22 45 26 131q7 5 32 19q8 -6 21 -23q9 -158 36 -433q3 -36 54.5 -61t89.5 -25t103.5 50.5t65.5 104t-29.5 178t-29.5 171.5t22 124
q16 22 34 22q31 -122 49.5 -250.5t33.5 -178.5q54 -171 162 -171h96q16 16 16 24.5t-42 104q-85 193.274 -85 323.5q0 64 32 129q29 -10 35 -45.5zM728 -451q0 -41 -29.5 -71.5t-70.5 -47l-100 -41.5l-327 -154h-44q10 33 22 86l514 248q35 0 35 -20zM1780 1222l-22 23h-33
q-37 -14 -56 -47t-14 -50l73 28q53 24 52 46zM534 24q34 0 55 30.5t21 64.5t-15 61l-121 -70q-74 -43 -111 -86h171z" />
    <glyph glyph-name="uniFB74" unicode="&#xfb74;" horiz-adv-x="1367" arabic-form="initial" 
d="M929 838q0 -54 -21 -70q-59 -41 -446 -268h-30q-11 11 -11 31q0 43 86 92q41 21 121 66q172 106 281 161q13 -12 20 -12zM694 306q0 -49 -15.5 -65l-30.5 -31q-10 -10 -32.5 -10t-99.5 56q0 22 18.5 68.5t44.5 46.5t115 -65zM1241 256q42 0 84 -109t42 -126.5t-41 -127.5
q-25 -13 -61.5 -13q-68.3948 0 -120.947 27t-68.0526 27t-39.5 -32.5t-43.5 -48t-50.5 -21.5l-88 -17l-27.5 -123t-32.5 -88.5t-107.5 -78.5t-129.5 -59.5t-95 -15.5t-104 15q-35 2 -91 14q-147 68 -147 209q0 59 34.5 146.5t76.5 116.5q33 0 33 -21q0 -11 -36 -86.5
t-36 -88.5q0 -87 100 -135q75 -36 152 -36h63q41 0 154.5 52t113.5 102.5t-18.5 92t-49 93t-30.5 73t39 80.5q38 -25 97 -92q29 -33 89 -33t90 20l99 144q98 140 150 140zM1376 -502q-7 -19 -23 -45q-117 -82 -383 -207q-13 -6 -46 -3t-41 3q10 28 38 66q113 63 443 227z
M1259 24v33l-25 30q-14 17 -29 17t-45 -28v-24l12 -10q2 -2 87 -18z" />
    <glyph glyph-name="uniFB75" unicode="&#xfb75;" horiz-adv-x="4210" arabic-form="medial" 
d="M4131 971l-63 9q-45 0 -98 -53q-14 12 -14 26t41 61t59 60q24 5 63 23l66 97q47 55 86 55t63.5 -34.5t24.5 -47.5t-33.5 -73t-43.5 -67q-98 -56 -151 -56zM4224 43q0 -10 -31 -101q-5 -5 -28 -19l-120 827q-1 5 -1 13q0 75 53 109q25 -91 76 -435t51 -394zM3391 1405
q0 -37 -199.5 -143t-318.5 -155q0 1 -5.5 12.5t-5.5 34t22 37.5l357 193q35 22 128 71q13 -10 22 -10v-40zM3307 1094q21 -48 21 -105t-34.5 -91.5t-118 -70.5t-112.5 -36t-48 32.5t-19 52.5t24 69.5t47 60.5v-92q16 -15 33 -15q27 0 44 64.5t37 79.5q26 -23 22 -76
q15 -13 29 -13q26 14 28 71.5t27 80.5q9 -5 20 -12zM3218.5 663q47.5 -39 47.5 -56.5t-35.5 -50.5t-58 -33t-54 36.5t-31.5 53t22.5 53t42 36.5t67 -39zM3360.5 516q30.5 -24 30.5 -44.5t-25 -57t-39 -36.5t-52.5 21t-56.5 25q-50 -71 -80.5 -71t-72 23t-41.5 43t28 57.5
t43 37.5t58 -22.5t52.5 -22.5t39.5 35.5t57.5 35.5t58 -24zM2602 616q0 -56 -38 -72q-257 -111 -295 -111t-79 21q11 28 103 62.5t112 64.5q-20 23 -49 23q-5 0 -116 -53h-40q6 51 75.5 105.5t91.5 54.5t106 -27.5t118 -35.5q11 -11 11 -32zM2042 1285q13 -13 13 -41
t-14 -39q-109 -89 -430 -269q-13 12 -13 28.5t5.5 33t6.5 24.5q138 97 432 263zM2607 -212l-161 9q-10 0 -69.5 54t-70 54t-40.5 -27t-56.5 -39.5t-95 -26.5t-100.5 -15l-381 -10q-147 -15 -329.5 -15t-259 69.5t-96.5 296.5q0 15 -4.5 54t-8.5 88.5t-14 197.5
q-9 51 -20 129.5t-25 128.5l-14 45q0 86 39 137q28 -13 51.5 -63.5t27 -102t21.5 -178.5t18 -191q0 -248 59 -368q34 -68 200 -92q123 61 158 116q1 2 1 54.5t-25.5 274.5t-50.5 347q-3 17 -22 54t-19 62t67 158q20 -18 33.5 -87.5t69.5 -74.5l-44 -147q0 -27 33 -170
q3 -13 9.5 -102t13 -150t6.5 -70v-80q-7 -6 9 -6t28.5 13.5t33.5 28l91 62.5q85 57 130 57q87 0 192 -73q1 -62 -31.5 -141.5t-102.5 -125.5q13 -9 45.5 -9t132.5 7t139 23t99.5 55.5t74 39.5t55.5 -38.5t79.5 -62.5t88 -24t204.5 11q25 8 72 21q65 9 87 31q24 34 84 98
q31 -9 31 -56q0 -17 -8 -64q14 -15 40 -15q111 0 168 29q22 11 52 59.5t60 54.5q11 -17 11 -35l-9 -52q0 -6 2 -13q34 -25 74 -25q59 0 79 94q8 39 45 75h31q6 -10 -0.5 -39.5t-6.5 -35.5q0 -52 157 -58q44 -1 67 14l-119 617q-4 18 -32 60t-28 73.5t25.5 100.5t51.5 77
q16 -9 25 -44l11 -49q1 -7 5 -45q18 -25 34 -25h42q12 0 12 -31l-52 -109q-2 -5 -2 -46t56 -309q17 -40 39 -108q13 -65 13 -115.5t-6.5 -64.5t-22 -53.5t-33 -53.5t-86.5 -14l-45 -9q-17 0 -78 22.5t-75.5 22.5t-36.5 -26.5t-34.5 -36t-71.5 -9.5l-121 18q-15 0 -62 -18
t-66.5 -18t-88.5 18t-89 18t-98 -27t-96 -27zM2423 -517l-99 36q-9 0 -46.5 -31t-53 -31t-52 26t-36.5 47.5t30 54.5t40.5 33t45 -18t45 -18t45.5 31t48.5 31t59 -28t45.5 -48.5t-31.5 -52.5t-40.5 -32zM944 -616q-10 -89 -104 -131q-18 -8 -148 -59q-14 -9 -207 -105h-30
q-11 11 -11 31q0 44 38 64q391 200 415 200h47zM4278 1140q-8 0 -22 10q-12 -1 -41 -28.5t-34 -41.5q91 24 97 60zM1875 90q-75 38 -123.5 38t-122.5 -56l-164 -126q7 -9 21 -15q208 34 379 128q10 8 10 31zM563.5 418.5q28.5 36.5 53 36.5t67.5 -28t36 -49.5l-14 -41.5
t-23 -32l-17 -12q-12 -9 -32.5 -9t-59.5 22.5t-39 49.5t28.5 63.5zM835 -138q0 -182 -138 -277q-113 -77 -279 -77q-108 0 -190 40q-111 57 -111 173q0 60 41 155.5t83 112.5q13 -10 13 -36t-22.5 -86.5t-22.5 -77.5q0 -84 105 -118q57 -18 127.5 -18t168.5 28
q143 39 143 108q0 53 -58.5 175t-58.5 124q0 42 38 100q37 0 57 -38q104 -192 104 -288z" />
    <glyph glyph-name="uniFB76" unicode="&#xfb76;" horiz-adv-x="3303" arabic-form="isolated" 
d="M3183 1011l-89 26q-13 0 -49.5 -24t-48.5 -28v29q0 20 29.5 57t43 46t90.5 20q21 32 66 91.5t80.5 59.5t83.5 -46q-2 -87 -62 -159t-144 -72zM3135 875q32 -87 98 -432.5t66 -383.5t-11 -120l-35 -56q-25 37 -34.5 97t-18 133.5t-30 196.5t-53.5 281.5t-32 171.5
q0 69 50 112zM2582 1158q-9 -22 -37 -55l-241 -137q-161 -90 -265 -135q-12 13 -12 32q0 66 544 344zM2475 741l-6 50q0 26 18 40h31q29 -87 29 -81q0 -50 -26.5 -89t-69.5 -54l-68 -21q-91 -42 -105 -42q-54 0 -54 71q0 37 44 108q15 -17 15 -31.5t-5 -25.5q12 -23 30 -23
t39 25q0 90.5714 32 118h31q9 -32 35 -90q30 13 30 45zM2677 -38l98 9q32 0 76 40q-4 26 -78 385q-9 87 -41 250q-4 13 -27 38t-23 47t30.5 90t54.5 82q22 -14 27.5 -62t13.5 -56q21 -9 69 -35q2 -5 2 -12q0 -41 -54 -119l116 -559q-1 -5 -17 -80.5t-45 -93.5t-101 -34
t-93 -25t-27.5 -29t-16.5 -48q-32 -81 -123.5 -175t-171.5 -113q-48 -11 -122.5 -11t-168 16t-117.5 40q0 33 21 33l104 -17q200.385 0 352 108q40 30 108 97.5t68 99.5q0 11 -7 14q-64 30 -64 93t44 63q15 0 57 -18t56 -18zM1943 -201.5q27 38.5 50 38.5t64.5 -26
t41.5 -49.5t-23.5 -50.5t-51.5 -27t-104 55q-4 21 23 59.5zM2231 -657q2 -18 -18 -54t-36 -42q-437 -172 -443 -171h-38v37q0 34 106 80l138 53q198 87 271 107q13 -10 20 -10zM709 -217l-166 27q-38 0 -51 -28q-25 -51 -64 -86.5t-167 -77t-167 -41.5h-74v33
q39 31 216 101.5t228 139.5q-19 32 -19 68q0 134 171 230q45 -55 145 -149q54 -39 151 -63q8 -2 75.5 -2t165.5 19t118 58q6 13 23 56q18 34 49 37q10 -17 10 -36t-5 -40q33 -40 56 -53.5t88.5 -13.5t117 18t157.5 59q-19 20 -68.5 52t-68 31t-118.5 -11q-28 -12 -85 -32v38
q0 25 45 77.5t77 75t70 22.5q12 0 82.5 -43.5t111.5 -62t160.5 -54.5t182.5 -36l120 -1q11 -1 11 -24t-47 -88q-34 -12 -115 -12l-152 17q-19 0 -231.5 -80t-296.5 -80q-46 0 -91 40t-50.5 40t-51 -32.5t-62.5 -36.5q-144 -38 -207 -38l-176 18q-28 0 -46 -33q-16 -3 -52 -3
zM1417 -486l-85 26q-9 0 -51 -31t-54 -31t-33.5 16l-53.5 39q-3 25 23.5 61t43 36t44 -13.5t39 -13.5t53 31.5t56 31.5t52.5 -29.5t38 -52.5t-27 -46.5t-45 -23.5zM716 -513q11 -2 11 -34t-34 -57l-76 -41q-149 -83 -397 -182q-13 2 -13 22q0 55 108 109l128 59
q110 55 233 124h40zM3308 1168q-7 8 -22 12l-41 -21q-22 -15 -24 -40h31q42 19 56 49zM627 -63q-22 48 -25 53q-18 30 -41 34q-28 -13 -31 -41q25 -25 97 -46z" />
    <glyph glyph-name="uniFB77" unicode="&#xfb77;" horiz-adv-x="2137" arabic-form="final" 
d="M2084 1248q12 -10 12 -36t-32 -50t-158.5 -89t-228.5 -109q0 1 -5 9t-5 17q0 45 35 65q155 94 382 193zM1934 868l136 7q0 -44 -19 -54q-111 -49 -204 -95h-27q-1 20 -4 56q-30 35 -30 60.5t53 89t91 63.5q55 0 55 -59q0 -18 -12.5 -35t-29.5 -17t-49 16l-12 -13
q19 -19 52 -19zM1942 749q16 -7 27 -55t53.5 -338t42.5 -364.5t-6 -97t-36 -64.5q-7 -1 -17 12.5t-12 22.5l-104 757q0 33 14 78.5t38 48.5zM1271 801q-10 21 -36.5 46t-26.5 55.5t41.5 93t83.5 62.5t51 -21t8.35596 -72.8431q-0.643921 -51.8431 4 -65
q4.64404 -13.1569 38.644 -42.6569t34 -50t-17 -57.5h-33q-9 0 -28.5 16t-28.5 16q5 0 -119 -104t-215 -126q-11 2 -11 19t82.5 86.5zM499.5 906.5q25.5 -38.5 25.5 -57t-28 -45.5q-3 2 -27.5 21.5t-34.5 19.5t-62.5 -52t-72.5 -65q-78 -54 -176 -82l-36 11q142 113 262 223
q-40 28 -48 42t-8 53.5t37.5 92.5t77.5 53t65 -49q6 -14 0 -55t-3 -56.5t28.5 -54zM969 -154l-40 -9q-60 0 -109 36.5t-49 98t46 141.5t109 80q39 0 99 -102.5t95 -102.5q52 0 109 38q3 10 -4 28.5t-7 51.5q0 100 69.5 200.5t153.5 100.5q37 0 120 -39.5t83 -86.5
q0 -12 -19 -32q-112 39 -132.5 39t-121.5 -34q-27 -9 -61 -41q-1 -6 -1 -11q0 -53 46 -94t89.5 -41t171 42.5t142.5 51.5h27q9 -9 9 -24t-18 -54t-32 -45q-113 -61 -222 -90l-262 -69l-74 -6q-56 -5 -74.5 -22t-29.5 -48.5q-27.8528 -79.7603 -102.926 -165.63
t-144.074 -105.37t-153.5 -19.5t-192.5 18q-47 8 -74 49q23 28 42 28l140 -15q207 0 397 227q4 27 -25 27zM397 527.5q0 -29.5 -19.5 -54.5t-51.5 -25t-63.5 20t-31.5 48t21 59t49.5 31t62 -24.5t33.5 -54zM552 184q44 -83 44 -171.5t-35 -134.5q-27 -32 -119 -52t-156 -20
q-87 0 -87 68q0 40 27 82q34 -8 73 -8t121.5 20t96.5 33q5 39 -58 100.5t-124 93.5q0 126 47 126q31 0 94 -55.5t76 -81.5zM1334 926q-15 28 -38 28l9 -38q4 0 14.5 5t14.5 5zM945 -11q-8 18 -34 54h-26q-18 -18 -18 -30q2 -1 16 -12.5t28 -11.5h34zM398 985q-15 28 -39 28
l9 -37q4 0 15 4.5t15 4.5z" />
    <glyph glyph-name="uniFB78" unicode="&#xfb78;" horiz-adv-x="2113" arabic-form="initial" 
d="M1613 1038l-94 20q-10 0 -41.5 -22.5t-45.5 -26.5q-1 4 -1 21t30 61t56 62q26 2 68 14q17 13 81.5 99.5t108.5 86.5t69 -36.5t25 -60.5q0 -92 -93.5 -155t-162.5 -63zM1858 -17l172 19q6 7 6 20q0 39 -45 100l-60 81q-3 12 -3 36q0 80 50 80t93.5 -101.5t43.5 -135.5
q0 -75 -44 -185q-5 -5 -37 -29q-142 -32 -189 -32q-168 0 -191 142q-131 805 -131 858q0 5 33 132q40 -5 64.5 -168.5l77.5 -505.5l6 -125.5q4 -83.5 43 -134.5t111 -51zM1251 1294q0 -63.6897 -578 -263q-8 0 -34 16q8 19 24.5 51.5t37.5 44.5q115 57 296 124t204 67
q50 0 50 -40zM905 887l26 -17q47 17 51 69.5t27 68.5q12 -9 36.5 -43.5t42.5 -34.5t34 16q-2 20 -2 51.5t26 51.5q10 -3 24 -5q21 -36 21 -71q0 -80 -59 -124q-26 -20 -121 -58.5t-117.5 -38.5t-66.5 42q-4 42 12 93t48 72q18 -23 18 -72zM2066 -344q-7 -117 -64 -117
q-38 0 -122 63q-2 28 23 71.5t62 43.5t101 -61zM2250 -451q14 -2 14 -27t-40 -59.5t-84.5 -49t-118 -45t-296.5 -114.5l-25 24q7 31 34 70zM1332 413q18.2927 -73.1709 71.6464 -199.085t53.3536 -196.915t-34 -136t-99 -65q-93 0 -151 27t-115 101q-98 -178 -266 -178
q-9 0 -65.5 30t-64.5 42q-15 43 -50 126q-31 -27 -104 -76q-27 -13 -105 -13t-207 21q0 2 -5.5 12t-5.5 22q0 103 199 237l212 139q22 45 26 131q7 5 32 19q8 -6 21 -23q9 -158 36 -433q3 -36 54.5 -61t89.5 -25t103.5 50.5t65.5 104t-29.5 178t-29.5 171.5t22 124
q16 22 34 22q31 -122 49.5 -250.5t33.5 -178.5q54 -171 162 -171h96q16 16 16 24.5t-42 104q-85 193.274 -85 323.5q0 64 32 129q29 -10 35 -45.5zM728 -451q0 -41 -29.5 -71.5t-70.5 -47l-100 -41.5l-327 -154h-44q10 33 22 86l514 248q35 0 35 -20zM1780 1222l-22 23h-33
q-37 -14 -56 -47t-14 -50l73 28q53 24 52 46zM534 24q34 0 55 30.5t21 64.5t-15 61l-121 -70q-74 -43 -111 -86h171z" />
    <glyph glyph-name="uniFB79" unicode="&#xfb79;" horiz-adv-x="1367" arabic-form="medial" 
d="M929 838q0 -54 -21 -70q-59 -41 -446 -268h-30q-11 11 -11 31q0 43 86 92q41 21 121 66q172 106 281 161q13 -12 20 -12zM694 306q0 -49 -15.5 -65l-30.5 -31q-10 -10 -32.5 -10t-99.5 56q0 22 18.5 68.5t44.5 46.5t115 -65zM1241 256q42 0 84 -109t42 -126.5t-41 -127.5
q-25 -13 -61.5 -13q-68.3948 0 -120.947 27t-68.0526 27t-39.5 -32.5t-43.5 -48t-50.5 -21.5l-88 -17l-27.5 -123t-32.5 -88.5t-107.5 -78.5t-129.5 -59.5t-95 -15.5t-104 15q-35 2 -91 14q-147 68 -147 209q0 59 34.5 146.5t76.5 116.5q33 0 33 -21q0 -11 -36 -86.5
t-36 -88.5q0 -87 100 -135q75 -36 152 -36h63q41 0 154.5 52t113.5 102.5t-18.5 92t-49 93t-30.5 73t39 80.5q38 -25 97 -92q29 -33 89 -33t90 20l99 144q98 140 150 140zM1376 -502q-7 -19 -23 -45q-117 -82 -383 -207q-13 -6 -46 -3t-41 3q10 28 38 66q113 63 443 227z
M1259 24v33l-25 30q-14 17 -29 17t-45 -28v-24l12 -10q2 -2 87 -18z" />
    <glyph glyph-name="uniFB7A" unicode="&#xfb7a;" horiz-adv-x="4217" arabic-form="isolated" 
d="M4132 975l-63 9q-45 0 -98 -53q-14 13 -14 27t40.5 60.5t59.5 59.5q25 4 62 23l67 96q45 56 85 56t63.5 -34t23.5 -47.5t-32.5 -73.5t-43.5 -67q-98 -56 -150 -56zM4225 52q0 -11 -31 -101q-5 -5 -29 -18l-119 822q-1 6 -1 14q0 74 53 108q25 -91 76 -433.5t51 -391.5z
M2878 1110l-10 35q0 35 22 49l355 194q35 20 128 69q12 -9 21 -9v-41q0 -36 -198 -142t-318 -155zM3311 1098q21 -48 21 -105t-34.5 -91t-117 -69.5t-111.5 -35.5t-52 38q-15 26 -15 45.5t23.5 69t46.5 60.5v-91q17 -15 32 -15q27 0 44.5 64t36.5 79q27 -23 22 -75
q15 -14 30 -14q25 15 27 72t28 80zM3223.5 668.5q47.5 -38.5 47.5 -56t-36 -50.5t-57.5 -33t-53.5 36t-32 53t22.5 53t42 36t67 -38.5zM3364.5 522q30.5 -24 30.5 -44t-25.5 -56t-39 -36t-52 20.5t-56.5 24.5q-50 -71 -80 -71t-71.5 23t-41.5 43t28 57t42.5 37t57.5 -22.5
t53 -22.5t39.5 35.5t57 35.5t58 -24zM2609 622q0 -56 -38 -72q-256 -111 -293.5 -111t-78.5 21q11 28 102 62.5t112 64.5q-21 22 -49 22q-5 0 -116 -53h-39q6 52 75 106.5t102 54.5q11 0 94.5 -27.5t117.5 -35.5q11 -12 11 -32zM2052 1287q13 -12 13 -40t-14 -39
q-108 -88 -429 -268q-13 12 -13 28.5t5.5 33.5t6.5 24q137 97 431 261zM3377 57l-9 -53q0 -6 2 -12q34 -25 73 -25q59 0 79 94q8 37 45 74h31q6 -10 -0.5 -39.5t-6.5 -35.5q0 -52 156 -58q44 -1 68 14l-120 615q-3 18 -31 60t-28 73t25.5 99.5t50.5 76.5q16 -9 25 -44
l11 -48q1 -7 5 -45q18 -24 34 -24h42q2 -2 7 -6.5t5 -24.5q-7 -13 -52 -109q-2 -5 -2 -46t56 -309q17 -38 40 -106q11 -65 11 -115t-5.5 -64.5l-21.5 -54t-33.5 -53t-86.5 -13.5l-44 -9q-17 0 -78 22.5t-75.5 22.5t-36.5 -26.5t-34 -36t-71 -9.5l-120 18q-15 0 -62 -18
t-67 -18t-88 18t-88 18t-98 -27t-96 -27l-175 -9l-160 9q-10 0 -70 54t-69.5 54t-39.5 -27t-56.5 -39.5t-96 -27t-98.5 -14.5l-669 -9q-29 -8 -132 -13.5t-266 2.5q-9 -18 -21 -94.5t-44 -124.5q-15 -26 -68 -61q-126 -84 -316 -84q-83 0 -197 39q-28 9 -52.5 33.5
t-64.5 90.5q-11 19 -11 71t42.5 140t75.5 117h32v-32q0 -11 -35.5 -74.5t-35.5 -76.5q0 -88 106 -142q80 -41 154.5 -41t196.5 43q160 56 160 136q0 62 -20.5 108t-58 107.5t-37.5 81t40 77.5q8 -7 69 -74.5t106.5 -85t70 -22t118 -4.5t115.5 10q127 63 166 124q1 1 1 53.5
t-25.5 273.5t-39.5 291.5t-33 108t-19 62t67 156.5q20 -18 33.5 -87t68.5 -75l-43 -146q0 -26 32 -169q3 -13 10 -101t13.5 -149.5t6.5 -70.5v-79q-7 -7 9 -7t28.5 14t33 28l90.5 63q84 56 129 56q87 0 192 -73q0 -61 -32 -140.5t-102 -124.5q13 -9 45.5 -9
q196.804 0 288.5 37q21 9 81 48t73.5 39t55.5 -38.5t79 -62t87.5 -23.5t204.5 10q24 9 71 22q65 9 87 31q23 34 83 97q30 -9 30 -55q0 -18 -7 -64q14 -15 39 -15q112 0 168 29q21 11 51 59t61 54q11 -17 11 -34zM2431 -507l-98 36q-10 0 -47.5 -31t-52.5 -31t-51.5 26
t-36.5 47t30 54.5t40 33.5t44.5 -17.5t45 -17.5t45.5 30.5t48.5 30.5t58.5 -28.5t45 -48.5t-31 -52t-40 -32zM1173 364q0 -105 -61 -192q3 163 -4.5 195.5t-56.5 103t-49 81t17 25t32 14.5q59 0 95 -99q27 -71 27 -128zM797 403q0 -35 -16 -75t-44 -40q-17 0 -53.5 31.5
t-36.5 52t27.5 49t39 28.5t83.5 -46zM959 -605q-11 -88 -104 -130q-19 -8 -148 -59q-14 -9 -206 -105h-30q-12 11 -12 31q0 44 39 63q390 200 413 200h48zM4277 1143q-7 0 -20 10q-12 0 -41.5 -27.5t-33.5 -41.5q90 24 95 59zM1885 98q-75 38 -123 38t-149 -77l-137 -104
q8 -9 21 -15q207 33 378 127q10 8 10 31z" />
    <glyph glyph-name="uniFB7B" unicode="&#xfb7b;" horiz-adv-x="3303" arabic-form="final" 
d="M3183 1011l-89 26q-13 0 -49.5 -24t-48.5 -28v29q0 20 29.5 57t43 46t90.5 20q21 32 66 91.5t80.5 59.5t83.5 -46q-2 -87 -62 -159t-144 -72zM3135 875q32 -87 98 -432.5t66 -383.5t-11 -120l-35 -56q-25 37 -34.5 97t-18 133.5t-30 196.5t-53.5 281.5t-32 171.5
q0 69 50 112zM2582 1158q-9 -22 -37 -55l-241 -137q-161 -90 -265 -135q-12 13 -12 32q0 66 544 344zM2475 741l-6 50q0 26 18 40h31q29 -87 29 -81q0 -50 -26.5 -89t-69.5 -54l-68 -21q-91 -42 -105 -42q-54 0 -54 71q0 37 44 108q15 -17 15 -31.5t-5 -25.5q12 -23 30 -23
t39 25q0 90.5714 32 118h31q9 -32 35 -90q30 13 30 45zM2677 -38l98 9q32 0 76 40q-4 26 -78 385q-9 87 -41 250q-4 13 -27 38t-23 47t30.5 90t54.5 82q22 -14 27.5 -62t13.5 -56q21 -9 69 -35q2 -5 2 -12q0 -41 -54 -119l116 -559q-1 -5 -17 -80.5t-45 -93.5t-101 -34
t-93 -25t-27.5 -29t-16.5 -48q-32 -81 -123.5 -175t-171.5 -113q-48 -11 -122.5 -11t-168 16t-117.5 40q0 33 21 33l104 -17q200.385 0 352 108q40 30 108 97.5t68 99.5q0 11 -7 14q-64 30 -64 93t44 63q15 0 57 -18t56 -18zM1943 -201.5q27 38.5 50 38.5t64.5 -26
t41.5 -49.5t-23.5 -50.5t-51.5 -27t-104 55q-4 21 23 59.5zM2231 -657q2 -18 -18 -54t-36 -42q-437 -172 -443 -171h-38v37q0 34 106 80l138 53q198 87 271 107q13 -10 20 -10zM709 -217l-166 27q-38 0 -51 -28q-25 -51 -64 -86.5t-167 -77t-167 -41.5h-74v33
q39 31 216 101.5t228 139.5q-19 32 -19 68q0 134 171 230q45 -55 145 -149q54 -39 151 -63q8 -2 75.5 -2t165.5 19t118 58q6 13 23 56q18 34 49 37q10 -17 10 -36t-5 -40q33 -40 56 -53.5t88.5 -13.5t117 18t157.5 59q-19 20 -68.5 52t-68 31t-118.5 -11q-28 -12 -85 -32v38
q0 25 45 77.5t77 75t70 22.5q12 0 82.5 -43.5t111.5 -62t160.5 -54.5t182.5 -36l120 -1q11 -1 11 -24t-47 -88q-34 -12 -115 -12l-152 17q-19 0 -231.5 -80t-296.5 -80q-46 0 -91 40t-50.5 40t-51 -32.5t-62.5 -36.5q-144 -38 -207 -38l-176 18q-28 0 -46 -33q-16 -3 -52 -3
zM1417 -486l-85 26q-9 0 -51 -31t-54 -31t-33.5 16l-53.5 39q-3 25 23.5 61t43 36t44 -13.5t39 -13.5t53 31.5t56 31.5t52.5 -29.5t38 -52.5t-27 -46.5t-45 -23.5zM716 -513q11 -2 11 -34t-34 -57l-76 -41q-149 -83 -397 -182q-13 2 -13 22q0 55 108 109l128 59
q110 55 233 124h40zM3308 1168q-7 8 -22 12l-41 -21q-22 -15 -24 -40h31q42 19 56 49zM627 -63q-22 48 -25 53q-18 30 -41 34q-28 -13 -31 -41q25 -25 97 -46z" />
    <glyph glyph-name="uniFB7C" unicode="&#xfb7c;" horiz-adv-x="1562" arabic-form="initial" 
d="M1258 1551q-4 -18 -16 -55q-52 -125 -130 -130q-14 40 -4 63t55 42.5t60 31.5t35 48zM667 464q0 -73 -42 -121.5t-121.5 -48.5t-80.5 65q-1 59 52 59q47 0 50 -41q2 -30 -24 -33q104 0 104 111q0 40 -20 71q-33 52 -90 66q-22 6 -54 18q-23 13 -23 43t38 50
q-58 42 -63 112.5t39.5 124.5t116.5 54q105 0 112 -87q1 -24 -13 -50t-37 -27q-63 -5 -67 47q-1 18 13.5 32.5t28 14.5t21.5 -4q-22 26 -57 26t-72.5 -34.5t-33.5 -87.5t55 -93q19 -16 82 -63q86 -86 86 -204zM668 291q0 -30 -29.5 -30t-29.5 30t29.5 30t29.5 -30zM346 603
q53 0 53 -53.5t-53 -53.5t-53 53.5t53 53.5zM1104 1338q0 -55 -87.5 -96.5t-150 -137t-74.5 -180t11 -280.5q10 -83 100 -326q-205 144 -331 144q-68 0 -137 -43q-8 -5 -131 -99q-29 -22 -52 -22t-40 8t-42 8t-25 -21.5t24.5 -21.5t41.5 8t40.5 8t52.5 -22l130 -100
q70 -43 138 -43q126 0 331 145q-91 -243 -100 -325q-23 -196 -10 -284t75 -181t148.5 -134t86.5 -95.5t-38 -66.5q-13 -4 -31.5 -4t-30 20t-11.5 30q0 34 36.5 34t36.5 -26q0 -14 -17 -24q31 1 21.5 35t-45.5 55q-315 186 -362 396q-9 44 -9 142t42 213q-58 -18 -126 -18
t-142 54q-36 26 -93 88.5t-78 62.5t-34 -15t-13 -33t13 -34q-7 -1 -21 -1t-34.5 14t-20.5 32t5 31q-36 0 -80.5 27.5t-58.5 31.5q13 3 58 31.5t81 27.5q-5 14 -5 32t20.5 31.5t34.5 13.5t22 -1q-14 -15 -14 -33t13.5 -33t35 -15t79 63t91.5 88q74 54 142 54t125 -19
q-41 116 -41 214.5t9 141.5q47 211 362 397q18 11 27 19t15 26q12 43 -18 44q17 -9 17 -23q0 -27 -36.5 -27t-36.5 34q0 10 11 29.5t29.5 19.5q70.5 0 70.5 -69zM667 120q0 -118 -86 -203l-83 -64q-51 -40 -54.5 -87t28 -87.5t72.5 -40.5t63 26q-8 -4 -21.5 -4t-28 14
t-13.5 33q3 53 67 48q24 -2 37.5 -28t11.5 -50q-6 -86 -111 -86q-72 0 -116.5 53.5t-39.5 124.5t63 113q-38 19 -38 48.5t16.5 39.5t66.5 23t77 54.5t27 80.5q0 111 -104 111q25 -1 23 -33q-2 -40 -52 -40t-49 58q1 66 80 66t121.5 -48.5t42.5 -121.5zM346 -18q-53 0 -53 53
t53 53t53 -53t-53 -53zM1258 -960q-7 14 -29 43q-13 12 -61.5 34t-58.5 44.5t4 63.5q78 -6 130 -131q8 -15 15 -54z" />
    <glyph glyph-name="uniFB7D" unicode="&#xfb7d;" horiz-adv-x="1516" arabic-form="medial" 
d="M418 1429q10 -23 -4 -63q-78 5 -131 130q-7 15 -15 55q8 -15 29 -44q13 -12 62 -33.5t59 -44.5zM1126 551q0 52 53.5 52t53.5 -53.5t-53 -53.5q-23 0 -38.5 16t-15.5 39zM1093 940q44 -54 39 -124.5t-63 -112.5q38 -20 38 -49.5t-17 -39.5t-66.5 -23t-76 -55t-26.5 -81
q0 -111 104 -111q-26 3 -24 33q3 41 50 41q52 0 51 -59q-1 -65 -80 -65t-121.5 48t-42.5 122q0 118 87 204l82 63q51 41 54.5 93.5t-34 87t-72.5 34.5t-57 -26q8 4 21.5 4t28.5 -14.5t14 -32.5q-4 -52 -67 -47q-23 1 -37.5 27t-12.5 50q7 87 112 87q72 0 116 -54zM1514 292
q-13 -4 -58 -31.5t-81 -27.5q5 -13 5 -31t-20.5 -32t-34.5 -14t-21 1q12 16 12 34t-12.5 33t-34 15t-78 -62t-93.5 -89q-73 -54 -141 -54t-126 18q41 -115 41 -251q0 -57 -9 -104q-47 -212 -361 -396q-19 -12 -28.5 -20t-13.5 -27q-13 -42 17 -43q-17 10 -17 24
q0 26 36.5 26t36.5 -34q0 -10 -11 -30t-30 -20t-31 4q-38 12 -38 66.5t86.5 95.5t148.5 134t75 181t-10 284q-10 82 -100 325q205 -145 330 -145q69 0 139 43l129 100q30 22 53.5 22t40.5 -8t41.5 -8t24.5 21.5t-25 21.5t-42 -8t-40.5 -8t-52.5 22l-130 99q-70 43 -138 43
q-125 0 -331 -144q91 243 100 326q23 196 10.5 283.5t-75 180t-149 133.5t-86.5 96.5t38 65.5q14 4 32 4t29.5 -19.5t11.5 -29.5q0 -34 -36.5 -34t-36.5 27q0 14 17 23q-31 -1 -18 -44q6 -24 42 -45q315 -186 362 -397q9 -43 9 -141.5t-42 -214.5q58 19 126.5 19t141.5 -54
q33 -24 91.5 -87.5t79.5 -63.5t34 15t13 33t-13 33q7 1 21.5 1t34.5 -13.5t20 -31.5t-5 -32q37 1 82 -27.5t58 -31.5zM1180 88q53 0 53 -53t-53 -53t-53 52q0 22 15.5 38t37.5 16zM917 291q0 -30 -30 -30t-30 30t30 30t30 -30zM1069 -118q59 -43 64 -113.5t-39.5 -124
t-116.5 -53.5q-105 0 -112 86q-2 24 12.5 50t37.5 28q63 5 67 -48q1 -18 -14 -32.5t-28.5 -14.5t-20.5 4q22 -26 57.5 -26t72 34t33 87.5t-54.5 93.5l-82 64q-87 85 -87 203q0 73 42.5 121.5t122 48.5t80 -62t-49.5 -62t-52 40q-2 32 24 33q-104 0 -104 -111q0 -39 27 -80.5
t77.5 -54.5t66 -23t15.5 -39.5t-38 -48.5zM413 -775q13 -40 3.5 -63t-54 -42.5t-60 -31.5t-35.5 -48q3 18 15 54q53 125 131 131z" />
    <glyph glyph-name="uniFB7E" unicode="&#xfb7e;" horiz-adv-x="1359" arabic-form="isolated" 
d="M1093 1547q-100 -90 -149 -145t-96 -162q-19 18 -53 25q44 87 93 142q85 95 205 140zM867 1153q0 -65 -59 -64q-20 0 -38.5 14.5t-18.5 34.5q0 47 39 47q4 0 10 -1q-13 6 -27 6q-58 0 -79 -82q-9 -37 0 -93.5t9 -92.5q0 -91 -48.5 -173t-133.5 -82q-58 0 -95.5 42
t-37.5 84.5t8 68.5q23 -98 113 -98t124 95q-16 -17 -47.5 -17t-67.5 30q66 13 91 80q10 26 23.5 113t50.5 130t90 43q94 0 94 -85zM391 555q-5 8 -23 19q-8 1 -24 4q-44 9 -56 64t21 85q-4 -16 14 -45q20 -19 58 -61q17 -23 17 -41.5t-7 -24.5zM435 301q40 0 104.5 -57.5
t64.5 -133.5t-41 -132t-130 -55q-43 1 -93 44q-48 49 -48 99t34 82t75 32t67.5 -22.5t26.5 -54.5t-17.5 -53t-45.5 -21t-48 20.5t-20 37.5t13 29q-35 5 -38.5 -45.5t34.5 -74.5q23 -24 65.5 -24t80.5 36t38 94.5t-42.5 102.5t-107.5 44t-117 -50t-53 -126q-58 60 -58 92
q0 25.45 31 58q-51 -17 -67.5 -15t-62.5 42.5t-63 50.5q13 8 60.5 48t64.5 41.5t68 -13.5q-9 6 -20 29t-11 28q0 32 58 92q1 -76 52.5 -125.5t117 -49.5t108 43t42.5 102t-38 95.5t-81 36.5t-65 -25q-37 -25 -34.5 -75t37.5 -45q-12 12 -12 31t21 37.5t47.5 18.5t44.5 -21
t18 -53t-26.5 -54.5t-67.5 -22.5t-75 32t-34 82t48 99q50 44 93 44q88 1 129.5 -55.5t41.5 -131.5t-65 -131.5t-104 -56.5zM344 22q28.3125 0 47 23q7 -7 7 -23q0 -35 -52 -79q-16 -13 -28.5 -33.5t-8.5 -36.5q-33 30 -21 85t56 64zM867 -552q0 -86 -94 -86q-53 0 -90 43
t-50 130t-24 113q-25 67 -91 80q36 30 67.5 30t47.5 -16q-34 94 -124 94t-113 -98q-8 27 -8 69t37.5 84.5t95.5 42.5q85 0 133.5 -82.5t48.5 -173.5q0 -36 -9 -92.5t0 -93.5q21 -82 79 -82q14 0 27 6q-6 -1 -10 -1q-39 0 -39 47q0 20 18.5 34.5t38.5 14.5q59 1 59 -63z
M1093 -947q-192.615 72.2308 -298 283q34 6 53 24q46 -106 115 -183q30 -34 130 -124z" />
    <glyph glyph-name="uniFB7F" unicode="&#xfb7f;" horiz-adv-x="1365" arabic-form="final" 
d="M578 1265q-33 -7 -51 -25q-48 107 -96.5 162t-150.5 145q121 -45 206 -140q49 -55 92 -142zM977 862q8 -26 8 -68.5t-37 -84.5t-95 -42q-86 0 -133.5 82t-47.5 173q0 36 9 93t-1 93q-22 82 -80 82q-13 0 -26 -6q5 1 11 1q38 0 38 -47q0 -20 -18.5 -34.5t-38.5 -14.5
q-58 -1 -58 64q0 85 93 85q53 0 90 -43t45 -99q18 -118 29 -144q25 -67 92 -80q-37 -30 -68 -30t-48 17q35 -95 124 -95t112 98zM1066 727q32 -31 20.5 -85.5t-56.5 -63.5l-25 -4q-9 -3 -22 -19q-7 7 -7 23q0 36 52 79q16 13 29 33.5t9 36.5zM1357 301q-17 -10 -63 -50.5
t-62 -42.5t-68 15q10 -8 20.5 -30t10.5 -28q0 -32 -58 -92q-1 73 -60 133q-46 43 -110 43t-107 -44t-43 -102.5t38 -94.5t80.5 -36t65.5 24q38 24 34 74.5t-37 45.5q12 -12 12 -31.5t-22 -37.5t-48 -18t-44 21.5t-18 53t27 54t68 22.5t74.5 -32t33.5 -83t-47 -98
q-9 -9 -36.5 -26.5t-57.5 -17.5q-87 -1 -128.5 55t-41.5 132t64.5 133.5t104.5 57.5q-40 0 -104.5 56.5t-64.5 131.5t41.5 131.5t129.5 55.5q44 0 93 -44q47 -49 47 -99t-33.5 -82t-74.5 -32t-68 22.5t-27 54t18.5 53t44.5 21.5t47.5 -18t21.5 -37.5t-12 -31.5q35 -5 38 45
t-34 75q-23 25 -65.5 25t-81 -36.5t-38.5 -95.5t42.5 -102t108 -43t117 49.5t52.5 125.5q58 -60 58 -92q0 -27 -30 -57q50 15 67 13.5t63.5 -41t61.5 -48.5zM1005 25q67.5172 0 82 -70q11 -51 -21 -82q4 16 -14 45q-22 19 -49 51.5t-27 51t7 24.5q6 -8 22 -20zM977 -262
q-23 98 -112 98t-124 -94q17 16 48 16t68 -30q-67 -13 -92 -80q-11 -26 -24 -113t-50 -130t-90 -43q-93 0 -93 86q0 64 58 63q20 0 38.5 -14.5t18.5 -34.5q0 -47 -38 -47q-6 0 -11 1q13 -6 26 -6q58 0 80 82q10 37 1 93.5t-9 92.5q0 91 48 173.5t133 82.5q58 0 95 -42.5
t37 -84.5t-8 -69zM578 -664q-102.814 -210.41 -298 -283q101 90 150.5 145.5t96.5 161.5q18 -18 51 -24z" />
    <glyph glyph-name="uniFB80" unicode="&#xfb80;" horiz-adv-x="979" arabic-form="initial" 
d="M742 1549q0 -29 -5 -54q-26 -124 -100 -143q-19 36 -14 59t43.5 48t51 38.5t24.5 51.5zM632.5 1341.5q42.5229 -65.9839 -52.5 -132.5q-75 -54 -118 -151t-40 -194q1 -46 69 -189q10 -22 10 -59t-28 -56q40 -35 40 -105.5t-47 -112.5t-111 -42q-31 0 -31 35q0 27 38 27
t63.5 27.5t25.5 70.5t-54 115t-73.5 115.5t-16.5 129.5q9 203 271 428q15 14 23 23t9.5 25t-4.5 29t-20 11q21 -8 21 -26q0 -34 -34 -34q-25 0 -32 20.5t-2 35.5q15 39 58 34q21 -2 35.5 -24.5zM543 303q0 -44 -44 -44t-44 44t44 44t44 -44zM321 689q-40 -31 -46 -58
t-1.5 -49t-1.5 -34q-16 -31 -46 -21q-2 -12 -2 -36t39 -52q6 -5 6 -14q0 -32 -29 -32q-7 0 -12 3q-57 38 -57 99q0 99 67 152q40 32 83 42zM359 8q-67 60 -77 72q-40 47 -38 100q-64 -6 -111 50q-12 14 -55.5 41t-64.5 27q20 0 65 28t55 41q47 55 111 50q-2 53 38 100
q10 12 77 71v-580zM321 -91q-45 10 -87.5 45.5t-52.5 73t-10 74.5q0 61 57 98q6 4 12 4q29 0 29 -32q0 -9 -6 -14q-39 -27 -39 -58q0 -12 2 -30q30 9 46 -22q6 -12 1.5 -33q-13.2728 -61.9397 47.5 -106zM580 -611q94.6003 -66.2202 52.5 -133q-14.5 -23 -35.5 -25
q-43 -5 -58 34q-5 15 2 35.5t32 20.5q34 0 34 -33q0 -19 -21 -27q14 -1 20 11.5q18.3126 38.1512 -28 75.5q-262 225 -271 430q-3 86 16 128t73.5 114.5t54.5 115.5t-25.5 70.5t-63.5 27.5t-38 28q0 35 31 35q64 0 111 -42t47 -112.5t-40 -106.5q28 -18 28 -55t-10 -58
q-68 -144 -69 -190q-3 -97 40 -193.5t118 -150.5zM742 -951q-5 14 -20 45q-10 14 -52.5 42.5t-47 51t14.5 56.5q72 -17 100 -141q5 -20 5 -54zM447 414q44 0 44 44.5t-44 44.5t-44 -44.5t44 -44.5zM447 94q44 0 44 44.5t-44 44.5t-44 -44.5t44 -44.5zM289 298q-54 39 -70 39
q-26 0 -34 -39q8 -15 25 -36q5 -1 15.5 -1t63.5 37z" />
    <glyph glyph-name="uniFB81" unicode="&#xfb81;" horiz-adv-x="1029" arabic-form="medial" 
d="M308 1503q9 -14 51.5 -41.5t48 -50.5t-14.5 -59q-71 18 -100 143q-4 16 -5 54q5 -15 20 -46zM723 820q3 -87 -17.5 -131t-73.5 -115.5t-53 -114t25.5 -70t63.5 -27.5t38 -27q0 -35 -31 -35q-64 0 -111 42t-47 112.5t41 105.5q-29 19 -29 55t11 60q67 142 68 189
q3 97 -39.5 194t-110.5 145q-102.932 72.6577 -60.5 138.5q14.5 22.5 35.5 24.5q45 5 59 -35t-22 -52q-6 -3 -13 -3q-34 0 -34 34q0 18 21 26q-13 2 -19.5 -11q-18.5465 -37.093 27.5 -77q262 -224 271 -428zM859 495q0 -61 -57 -99q-4 -3 -12 -3q-29 0 -29 32q0 9 6 14
q40 27 40 57q0 9 -3 31q-30 -10 -46 21q-6 12 0 39q13 57 -49 102q46 -11 88 -46t52 -73.5t10 -74.5zM1017 298q-21 0 -64.5 -27t-55.5 -41q-47 -56 -111 -50q2 -53 -38 -100q-9 -12 -77 -72v580q68 -59 77 -71q40 -47 38 -100q64 5 111 -50q10 -13 55 -41t65 -28zM859 102
q0 -99 -67 -151q-41 -33 -83 -42q41 29 46.5 56t1 49t1.5 34q16 31 46 22q3 14 3 37.5t-40 50.5q-6 5 -6 14q0 32 29 32q6 0 12 -4q57 -37 57 -98zM576 303q0 -44 -44.5 -44t-44.5 44t44.5 44t44.5 -44zM723 -222q-9 -205 -271 -430q-29.0348 -24.887 -31.5174 -43.9435
t4.0174 -31.5565t19.5 -11.5q-21 8 -21 27q0 33 34 33q25 0 32.5 -20.5t1.5 -35.5q-14 -39 -58 -34q-21 2 -35.5 25q-42.1003 66.7798 52.5 133q76 54 118.5 150.5t39.5 193.5q-1 48 -68 190q-11 23 -11 59t29 54q-41 36 -41 106.5t47 112.5t111 42q31 0 31 -35
q0 -28 -38 -28t-63.5 -27.5t-25.5 -70t53.5 -114t73.5 -114.5t17 -130zM393 -756q20 -34 15 -56.5t-43.5 -48.5t-51.5 -40t-25 -50q0 18 5 54q29 124 100 141zM846 298q-9 17 -26 37q-4 2 -13 2t-66 -39q55 -37 70 -37q27 0 35 37zM583 414q44 0 44 44.5t-44 44.5t-44 -44.5
t44 -44.5zM583 94q44 0 44 44.5t-44 44.5t-44 -44.5t44 -44.5z" />
    <glyph glyph-name="uniFB82" unicode="&#xfb82;" horiz-adv-x="1196" arabic-form="isolated" 
d="M937 -959q-229 135 -391.5 397.5t-160 508t89.5 348.5q-87 104 -89.5 349t160 508t391.5 398q-219 -280 -296 -414q-139 -245 -139 -480q0 -97 40.5 -196.5t108.5 -164.5q-67 -56 -108 -161t-41 -199q0 -236 139 -481q77 -133 296 -413zM702 -194q0 -31 -23.5 -52
t-60.5 -21t-66.5 32t-29.5 63.5t13 69.5t13 57q0 67 -48 105q-123 94 -148 193q-22 -20 -22 -100t62 -161q-95 12 -134 65q-21 28 -29 85q-45.2073 -7.23315 -125 68l-29 45q-23 31 -52 40q31 10 81 85q14 21 56 46t69 22q8 57 29 85q39 54 134 66q-62 -81 -62 -161t22 -100
q9 36 20 58q25.3651 50.7302 128 134q48 40 48 105q0 20 -13 58t-13 69t29.5 63.5t66.5 32.5t60.5 -21t23.5 -52q0 -68 -62 -68q-52 0 -52 59q-4 -8 -4 -27.5t38 -53t38 -97t-35.5 -110t-73.5 -68.5q-130.645 -65.3226 -176 -125q38 -50 82 -74l94 -51q37 -22 63 -54
q46 -61 46 -124t-38 -97t-38 -63q0 -9 4 -17q0 59 52 59q62 0 62 -68zM330 295q-37 56 -92 56q-22 0 -40.5 -17t-18.5 -39t18.5 -39t40.5 -17q55 0 92 56z" />
    <glyph glyph-name="uniFB83" unicode="&#xfb83;" horiz-adv-x="1194" arabic-form="final" 
d="M1186 295q-30 -9 -81 -85q-13 -21 -57 -46.5t-67 -21.5q-8 -57 -29 -85q-39 -53 -134 -65q61 81 61 161t-22 100q-10 -39 -19.5 -59t-44 -57t-83.5 -77t-49 -105q0 -19 13 -57t13 -69t-29 -63.5t-66 -32.5t-61 21t-24 52q0 68 62 68q53 0 53 -59q4 8 4 26.5t-38 52.5
t-38 99t51 129q24 29 53 45.5l85.5 47t94.5 80.5q-38 50 -82 74l-93 51q-39 22 -74 68t-35 110t38 98t38 63q0 9 -4 17q0 -59 -53 -59q-62 0 -62 68q0 31 24 52t60.5 21t66 -33t29.5 -63.5t-13 -68.5t-13 -58q0 -67 45 -102t89.5 -82t61.5 -113q22 20 22 100t-61 161
q95 -12 134 -66q21 -28 29 -85q46.4486 5.35947 124 -68l30 -45q23 -31 51 -40zM734 295q89 -102 91 -348.5t-160.5 -508t-392.5 -397.5q221 281 296 413q139 245 139 481q0 94 -41 199t-108 161q69 65 109 164.5t40 196.5q0 235 -139 480q-75 133 -296 414
q230 -136 392.5 -398t160.5 -508t-91 -349zM1030 295q0 22 -18 39t-40 17q-56 0 -92 -56q36 -56 92 -56q22 0 40 17t18 39z" />
    <glyph glyph-name="uniFB84" unicode="&#xfb84;" horiz-adv-x="1329" arabic-form="isolated" 
d="M974 1437q-2 -17 -10 -53q-41 -118 -113 -128q-15 35 -8 58q8 21 48 42t53.5 33.5t29.5 47.5zM1129 1535q-94 -155 -102 -170q-54 -107 -54 -170.5t14 -104.5q-95 -9 -161.5 -74t-66.5 -148.5t32 -184q37 -116.203 37 -166.5q0 -151 -117 -161q-44 -5 -76.5 18.5
t-34.5 59.5t17.5 61t46 27t46 -13.5t22.5 -43t-11 -37.5t-36 -18q48 5 64 27.5t16 76.5t-31 160t-31 192.5t60 170.5t155 93q-2 23 -2 46q0 208 213 359zM841 1237q0 -57 -75.5 -100t-126.5 -135.5t-58 -181.5q-3 -34 9.5 -96t25 -90.5t52.5 -88.5q-66 0 -80 -58
q-99 46 -100 257q0 42 3 64q30 198 282 372l20 14q13 14 19 40t-22 30q16 -7 16 -21q0 -26 -31 -26q-6 0 -14 3q-27 13 -14 40.5t39 30t40.5 -15.5t14.5 -38zM486 471l26 -7q12 -14 18 -19q-3 15 -3 28q0 76 81 108q57 -36 53 -36q-83 -10 -83 -100q0 -27 29 -90
q-1 0 -11.5 -6.5t-17.5 -6.5q24 0 -29.5 20.5t-79 20.5t-57.5 -20q-14 -12 -89 -71l90 -71q29 -21 66.5 -21t98.5 42q8 0 18 -6.5t11 -6.5q-29 -62 -29 -91q0 -90 84 -99q4 0 -54 -37q-80 32 -80 108q0 14 2 28q-6 -4 -17 -18l-26 -8q-47 0 -105 75t-95 90q-3 -3 0 -8.5
t3 -12.5q0 -24 -50.5 -39t-50.5 -37l11 -38q-19 1 -38.5 23t-19.5 41l6 37q-39.3824 3.02942 -55.1912 12.5147l-63.8088 36.4853q3 1 73 41q18 1 46 7l-7 38q0 18 20 40.5t38 23.5l-10 -39q0 -22 50 -37t50 -39q0 -8 -2 -12t-2 -5.5t1 -3.5q38 15 96.5 90t103.5 75z
M1130 -951q-214 151 -214 358q0 23 3 47q-96 8 -156 92t-60 169.5t31.5 194t31.5 161.5t-16.5 75.5t-64.5 26.5q12 -3 30 -12q20 -15 17.5 -43t-22 -43.5t-46 -13.5t-46.5 27t-18 61t35 59.5t76 19.5q117 -11 117 -162q0 -57.9706 -34.5 -170.485
q-34.5 -112.515 -34.5 -168.515q0 -94 66.5 -159.5t161.5 -73.5q-14 -42 -14 -106t54 -169q5 -9 103 -170zM842 -653q0 -21 -14.5 -38.5t-41 -15t-39.5 30t15 40.5q7 3 14 3q30 0 30 -26q0 -14 -15 -21q27 4 21 33t-38 51q-253 174 -283 372q-2 18 -2 64q1 211 100 256
q13 -57 79 -57q-39 -60 -51.5 -88t-25 -91t-10.5 -96q8 -96 59.5 -186t126.5 -132t75 -99zM974 -853q-6 15 -24 42q-11 13 -55 36t-51.5 45.5t7.5 57.5q73 -10 114 -129q5 -16 9 -52z" />
    <glyph glyph-name="uniFB85" unicode="&#xfb85;" horiz-adv-x="1381" arabic-form="final" 
d="M562 1314q7 -22 -8 -58q-73 10 -114 128q-5 17 -9 53q6 -15 24 -43q12 -12 55.5 -35.5t51.5 -44.5zM916 744q0 -211 -100 -257q-13 58 -80 58q41 60 53.5 88.5t24.5 90.5t7.5 123.5t-55.5 154t-126.5 135.5t-75.5 100q0 20 14.5 38t40 15.5t39 -30t-13.5 -40.5
q-8 -3 -15 -3q-30 0 -30 26q0 14 15 21q-27 -3 -21 -32.5t38 -51.5q290.622 -199.874 285 -436zM787.5 495q19.5 -25 17.5 -61t-35 -59.5t-76 -18.5q-117 10 -117 161q0 54.1818 34.5 168.091q34.5 113.909 34.5 171.909q0 94 -66.5 159t-161.5 74q14 41 14 104.5t-54 170.5
q-8 15 -102 170q213 -151 213 -359q0 -23 -3 -46q96 -9 156 -93t60 -170.5t-31 -192.5t-31 -160t16 -76.5t63 -27.5q-11 4 -29 13q-21 15 -17.5 42.5t23 43t46 13.5t46 -27zM1216 403l-10 39q18 -1 38 -23.5t20 -40.5l-7 -38q42.25 -3.25 58.625 -13.625t59.375 -34.375
l-72 -42q-18 -1 -46 -7l6 -37q0 -19 -19.5 -41t-38.5 -23l10 38q0 22 -50 37t-50 39q0 7 3 12.5t0 8.5q-37 -15 -95 -90t-105 -75l-26 8q-11 14 -18 18q3 -14 3 -28q0 -76 -80 -108q-58 37 -54 37q83 9 83 99q0 29 -28 91q1 0 11 6.5t17 6.5q-24 0 29.5 -21t80.5 -21
t56 22.5l90 69.5l-90 71q-31 20 -67.5 20t-97.5 -41q-8 0 -18 6.5t-11 6.5q29 63 29 90q0 90 -83 100q-5 0 53 36q81 -32 81 -108q0 -13 -3 -28q6 5 18 19l26 7q45 0 103.5 -75t96.5 -90q1 2 1 4l-4 17q0 24 50 39t50 37zM916 -160q0 -47 -2 -64q-30 -198 -283 -372
q-9 -6 -21 -17t-18 -37t22 -30q-15 7 -15 21q0 26 30 26q6 0 14 -3q28 -13 15 -40.5t-39.5 -30t-41 15t-14.5 38.5q0 57 75 99t126.5 132t59.5 186q2 33 -10.5 96t-25 91t-52.5 88q67 0 80 57q100 -46 100 -256zM694 228q43 4 76 -19.5t35 -59.5t-18 -61t-46.5 -27t-46 13.5
t-22 43.5t11 37.5t35.5 17.5q-48 -4 -64 -26.5t-16 -75.5t31.5 -160t31.5 -181q0 -115 -66 -192t-150 -84q2 -24 2 -47q0 -208 -213 -358q94 154 102 170q54 106 54 169.5t-13 105.5q95 8 161.5 73.5t66.5 159.5q0 47.8182 -35 163.909t-35 175.091q0 151 118 162zM554 -672
q14 -35 7 -57.5t-47.5 -43.5t-54 -33t-28.5 -47q1 17 9 52q41 119 114 129z" />
    <glyph glyph-name="uniFB86" unicode="&#xfb86;" horiz-adv-x="1292" arabic-form="isolated" 
d="M1051 1548q-1 -17 -5 -53q-28 -124 -100 -142q-20 35 -14 58q5 23 43.5 48t51 39t24.5 50zM941 1341.5q41.6053 -66.8657 -42.6973 -126.183t-127.303 -157.317t-40 -194q2 -47 40.5 -129t38.5 -119t-28 -56q39 -35 39 -106t-46.5 -112.5t-111.5 -41.5q-30 0 -30 35
q0 27 38 27t63.5 28t25.5 70t-54 114t-73.5 115t-16.5 130q8 206 271 430q45.055 39.0476 28 76q-6 13 -20 11q21 -7 21 -26q0 -34 -34 -34q-21 0 -31 18.5t-4 38.5q14 38 58 33q22 -2 36 -24.5zM852 303q0 -44 -44.5 -44t-44.5 44t44.5 44t44.5 -44zM454 463l25 -7
q10 -14 17 -18q-4 14 -4 27q0 49 43 81t94.5 32t79.5 -38t28 -81t-21 -66.5t-53 -23.5q-47 0 -59 55q3 -4 7 -4t8 2q5 -38 46 -38q20 0 38 21t18 51t-24.5 55t-64.5 25t-65.5 -28t-25.5 -61.5t28 -94.5q-2 0 -11.5 -6t-16.5 -6q24 0 -27.5 19t-76 19t-46 -14t-93.5 -71
l68 -56q44 -31 80 -31t93 39q8 0 17.5 -6t10.5 -6q-28 -62 -28 -95t26 -61.5t66 -28.5t64 25t24 55.5t-18 51.5t-38 21q-39 0 -45 -38q-3 2 -7.5 2t-7.5 -4q11 55 58 55q32 0 54 -23.5t22 -66.5t-29 -81t-80 -38t-93.5 31.5t-42.5 81.5q0 13 2 27q-6 -4 -16 -18l-26 -7
q-43 0 -98.5 71.5t-90.5 85.5q-3 -3 -0.5 -8.5t2.5 -11.5q0 -24 -47.5 -38t-47.5 -34l10 -36q-18 1 -36.5 21.5t-18.5 38.5l5 36q-31.5 0 -44 5q-26 18 -67 40l69 40q16 1 43 6l-6 36q0 18 18.5 38.5t36.5 21.5l-9 -36q0 -21 47.5 -35t47.5 -37q0 -7 -2.5 -12t0.5 -8
q35 13 91 85t99 72zM731 -267q-3 -97 40 -194t127.389 -157.674q84.3895 -60.6736 42.6105 -126.326q-14 -22 -36 -24q-44 -5 -58 34.5t22 52.5q6 3 13 3q34 0 34 -33q0 -19 -21 -27q14 -1 20 11.5q17.9763 37.4507 -28 75.5q-263 225 -271 430q-3 87 16 128.5t73.5 114.5
t54.5 115.5t-25.5 70t-63.5 27.5t-38 28q0 35 30 35q65 0 111.5 -42t46.5 -112.5t-39 -106.5q28 -18 28 -55t-11 -58q-66 -143 -68 -190zM1051 -951q-5 14 -20 45q-9 13 -51.5 41t-47.5 51t14 58q72 -17 100 -141q4 -17 5 -54z" />
    </font>
</defs>
</svg>
